<?xml version="1.0" encoding="utf-8"?>
<!-- Generator: Adobe Illustrator 22.0.1, SVG Export Plug-In . SVG Version: 6.00 Build 0)  -->
<svg version="1.1" id="Calque_1" xmlns="http://www.w3.org/2000/svg" xmlns:xlink="http://www.w3.org/1999/xlink" x="0px" y="0px"
	 viewBox="0 0 442.7 484.7" style="enable-background:new 0 0 442.7 484.7;" xml:space="preserve">
<path d="M388.3,210.8c16.6,0.6,25.6,6.9,28.6,19.6c2.8,12-3,22.1-17.1,29.6c6.8,29.6,6.9,59.2-1.1,89.1c6.6,1.8,12.8,3.4,19,5.1
	c6,1.6,9.2,5.2,9.3,10.2c0.1,5.2-3.2,9.1-9.3,10.7c-5.1,1.4-10.2,3.1-15.5,4c-4.1,0.7-5.3,3-5.9,6.6c-1.8,9.8-3.7,19.6-5.8,29.4
	c-1.4,6.2-6.3,9.5-12.1,8.4c-4.4-0.8-7.1-3.5-8.1-7.8c-0.7-2.9-1.3-5.7-1.9-8.2c-8.7,7.6-16.9,15.8-26,22.6
	c-28.1,21.2-60.4,32.1-95,35.9c-34,3.7-67.6,1.4-100.1-9.8c-53.6-18.5-91.3-53-107.1-108.8c-8.1-28.8-7.5-57.9-0.8-87.4
	c-7.4-2.3-13.6-6.5-16.3-13.9c-1.6-4.7-2.6-10.2-1.8-15c2-12.9,10.7-18.8,28-20.4c-1.5-6.1-5.4-10.1-10.4-13.5
	c-4.5-3.1-9.1-6.2-13.2-9.8c-12.7-11.2-12.7-25.3,0-36.5c10.4-9.3,23.1-14.3,36.1-18.7c28.4-9.5,57.9-14,87.6-17
	c38-3.8,76.2-4.1,114.3-2c6.3,0.4,12.6,0.9,17.8,1.2c0-5.1-1.2-10.3,0.3-14.5c1.5-4.1,5.1-8.2,8.9-10.7c6.2-4,14.5-2.2,19.7,3
	c6.5,6.4,6.7,13.6,0.7,25.2c10.8,1.9,21.6,3.6,32.3,5.8c18.8,3.8,37.4,8.4,54.5,17.4c6.7,3.5,13.2,8,18.5,13.3
	c9.3,9.3,9.1,21.3-0.2,30.7c-4.4,4.4-9.8,7.9-15.1,11.4C395.5,199.7,390.7,203.7,388.3,210.8z M59.6,206.7
	c1.4,19.5,1.4,19.5-5.7,40.4c-9,26.5-11.8,53.7-7.2,81.3c8.4,50.5,36.5,86.9,82.3,109c44.9,21.7,92.2,24.5,140.4,14.2
	c35.6-7.7,66.3-24.3,90.8-51.9c4.5-5.1,6-10,3.5-16.1c-0.6-1.5-2.2-3.3-3.6-3.8c-6-1.9-12.2-3.2-18.3-5c-5.1-1.5-8.2-5.4-8.2-10.1
	c0-4.9,3.1-8.9,8.5-10.4c5.3-1.5,10.6-3,15.9-4.1c4-0.8,5.7-2.7,6.4-6.7c1.7-9.8,3.7-19.6,5.8-29.4c1.2-5.4,5.2-8.6,10.1-8.6
	c5,0,8.9,3.2,10.2,8.6c0.7,2.9,1.4,5.8,2,8.7c4.3-31.1-0.3-60.9-12.6-89.4c-3.4-7.8-4.4-15.6-2.3-23.9c0.3-1,0.4-2.1,0.4-2.4
	C271.7,233.4,165.6,233.4,59.6,206.7z M382.9,194c7.9-4.7,15.8-8.4,22.6-13.5c9.8-7.4,9.9-15.7-0.3-22.7c-7.8-5.5-16.5-10-25.5-13.4
	c-30-11.4-61.5-16-93.2-18.9c-57.3-5.3-114.5-4.3-171.4,4.8c-22.5,3.6-44.9,8.4-65.7,18.2c-6.5,3.1-12.9,7.1-18.3,11.8
	c-6.5,5.6-6.4,12.5,0,18.1c7.3,6.3,15.4,11.4,25.1,14.4c2.3-9.4,9.3-14.1,17.3-17.5c7-3,14.4-5.2,21.6-7.8c2-0.7,4.1-1.5,5.7-2.7
	c8.8-6.6,18.3-8.2,28.8-5.3c1.5,0.4,3.3,0.7,4.8,0.6c10.9-1.1,21.8-2.4,32.8-3.4c3-0.3,5-1.2,6.9-3.7c9.7-12.5,27.4-13.2,37.9-1.5
	c2.4,2.7,4.7,3.4,8.1,3.4c33-0.1,65.9,1.9,98.5,7.2c7.3,1.2,15.1,0.7,22.1,3c10.5,3.5,20.6,8.4,30.5,13.2
	C377.2,181.2,381.5,185.9,382.9,194z M359.8,183.6c-0.3,1.3-0.4,1.6-0.4,1.9c0.2,3.7,0.3,7.5-4.4,8.1c-4.7,0.5-5.4-3-6.1-6.8
	c-1.2-7.5-7.5-12.7-14.6-12.5c-7.2,0.2-13,5.5-13.9,13.2c-0.5,3.8-2,6.7-6.2,6.1c-4.2-0.6-5.1-4-4.1-7.6c1.3-4.6,3-9,4.7-13.9
	c-31.5-5-63.6-7-95.3-6c-1.6,2.8-3.5,6.2-5.9,6.6c-4.1,0.7-5-2.9-5.5-6.6c-1.1-7.4-7.5-12.7-14.5-12.6c-7.2,0.2-12.8,5.6-14.3,13
	c-0.4,2.2-2.7,5.9-3.9,5.8c-2.7-0.2-5.2-2.4-7.8-3.7c0.2-0.6,0.4-1.1,0.6-1.7c-4,0.4-7.9,0.7-11.9,1.1c-3.9,0.4-7.7,0.8-10.6,1.1
	c1.8,6.4,3.7,12.3,4.9,18.4c0.3,1.6-1.6,4.5-3.2,5.3c-1.4,0.7-4.2-0.3-5.6-1.5c-1.1-1-1.2-3.3-1.4-5.1c-1.7-12.6-14.2-20.9-26.1-17
	c-8.6,2.8-13.4,9-14.4,18c-0.4,3.8-1.8,6.6-6.1,6c-4.1-0.6-4.6-3.8-4.3-7.2c0.2-1.9,0.5-3.8,0.9-7.4c-7.5,3.9-14.2,6.9-20.3,10.7
	c-4.5,2.8-3.5,6.8,1.5,8.8c1.1,0.4,2.2,0.7,3.3,1c31.9,9,64.5,13,97.5,15.1c54.4,3.5,108.5,1.6,162.2-8.3c10.8-2,21.4-4.9,32-7.7
	c1.9-0.5,4.3-2.5,4.8-4.3c0.4-1.3-1.4-3.9-2.9-5.1C366.1,187,363.1,185.6,359.8,183.6z M414.7,365.1c0-0.3,0-0.6,0-0.9
	c-7.4-2-14.7-4.1-22.1-5.8c-3.1-0.7-4.5-2-5-5.1c-1.3-7.4-2.7-14.7-4.2-22c-0.8-4.1-1.7-8.1-2.6-12.2c-3.2,11.2-5.5,22.2-7.4,33.4
	c-0.6,3.5-2,5.3-5.8,6.1c-7.3,1.5-14.4,3.8-23,6.1c4.9,1.4,8.3,2.3,11.6,3.2c5.3,1.5,12.3,1.4,15.3,4.8c3.3,3.6,2.9,10.6,4,16.1
	c1.5,7.1,2.9,14.3,4.4,21.4c3.3-11.3,5.5-22.5,7.6-33.7c0.6-3,1.6-4.9,5.1-5.6C400,369.3,407.3,367.1,414.7,365.1z M51.1,222.7
	c-8.6-3-16.5,0.6-19.2,8.1c-2.9,7.9,1.3,15.8,10.3,18.9C45.1,240.7,48,231.9,51.1,222.7z M397.1,249.1c8.6-3.4,12.1-11.7,8.6-19.4
	c-3.3-7.1-11.4-10.3-18.5-6.8C390.5,231.5,393.7,240.1,397.1,249.1z M298.2,113.1c4.5,0.1,8.2-3.6,8.3-8.1c0.1-4.7-3.8-8.7-8.4-8.6
	c-4.5,0.1-8.1,3.8-8.1,8.4C290.1,109.3,293.7,113,298.2,113.1z"/>
<path d="M207.5,89.6c-20.9-0.4-37.5-17.5-36.9-38c0.6-20.5,17.5-36.7,38.1-36.4c20.6,0.3,37.1,17.6,36.6,38.3
	C244.8,73.6,227.7,89.9,207.5,89.6z M207.9,26c-14.6,0-26.4,11.7-26.5,26.2c-0.1,14.6,12,26.8,26.6,26.8c14.5,0,26.3-11.9,26.4-26.3
	C234.5,37.7,222.8,26,207.9,26z"/>
<path d="M122.6,66.9c11.8-0.1,21.4,9.3,21.5,21c0.1,11.7-9.6,21.3-21.3,21.3c-11.5,0-21-9.4-21.2-20.9
	C101.3,76.7,110.9,67,122.6,66.9z M132.9,88c0-5.6-4.5-10.1-10.2-10c-5.5,0.1-9.8,4.3-10,9.7c-0.2,5.5,4.5,10.3,10,10.4
	C128.3,98.2,132.9,93.6,132.9,88z"/>
<path d="M191.5,428.3c-48.9-1.5-99.7-39.9-112.3-85.2c-1.9-6.6-2.2-13.7-3-20.7c-0.4-3.5,1.5-6,5.1-6c3.3,0,5,2.2,5.1,5.5
	c1,27.8,14.7,49,35,66.4c20.8,17.8,44.9,28.2,72.6,29.6c3.9,0.2,7.4,0.8,7.2,5.4c-0.2,4.7-4,5.1-7.7,4.9
	C192.8,428.3,192.1,428.3,191.5,428.3z"/>
<path d="M242.1,178.2c10.5-0.1,19.9,7.9,21.2,18.2c0.5,3.5,0.3,7-4.1,7.8c-4.3,0.7-5.6-2.1-6.3-5.9c-1-6-5.6-9.8-11-9.6
	c-5.3,0.2-9.5,3.9-10.4,9.7c-0.6,3.9-2.1,6.5-6.3,5.8c-4.1-0.7-4.3-3.9-4-7.3C222.3,186.6,231.6,178.3,242.1,178.2z"/>
</svg>
