<?xml version="1.0" encoding="utf-8"?>
<!-- Generator: Adobe Illustrator 22.0.1, SVG Export Plug-In . SVG Version: 6.00 Build 0)  -->
<svg version="1.1" id="Calque_1" xmlns="http://www.w3.org/2000/svg" xmlns:xlink="http://www.w3.org/1999/xlink" x="0px" y="0px"
	 viewBox="0 0 928.1 1164" style="enable-background:new 0 0 928.1 1164;" xml:space="preserve">
<style type="text/css">
	.st0{fill:#510000;}
	.st1{fill:#DDB800;stroke:#510000;stroke-width:3;stroke-miterlimit:10;}
	.st2{fill:#DDB800;}
</style>
<g>
	<g>
		<path class="st0" d="M103.6,198.7C103.6,198.7,103.7,198.7,103.6,198.7c0.1,0.1,0.1,0.2,0.1,0.2c4.8,6.4,9.7,12.8,14.5,19.2
			c-7.9,6-15.6,12.1-23.2,18.6c-3-3.5-5.9-7-8.9-10.6c-0.6,0-1.2,0.1-1.8,0.1c-4.6,3.9-9.1,7.8-13.5,11.8c-0.1,0.6-0.2,1.2-0.3,1.8
			c10.6,11.7,21.2,23.5,31.7,35.2c0.6,0,1.2,0,1.7-0.1c4.1-3.7,8.2-7.3,12.4-10.8c0.1-0.6,0.2-1.1,0.3-1.7c-2.2-2.7-4.5-5.3-6.7-8
			c-2.3,1.9-4.5,3.8-6.8,5.8c-4.8-5.5-9.5-11-14.3-16.5c9.8-8.6,19.9-16.7,30.2-24.5c8.5,11.3,17.1,22.6,25.6,33.9
			c0,0,0,0.1,0.1,0.1c-1.5,6.7-2.8,13.4-4,20.2c-10.6,8.6-21,17.6-31.1,27.1c-6.9,0.3-13.9,0.8-20.9,1.4c-16-16-32-32-48-48
			c1.1-7.5,2.4-15,3.8-22.6c11.9-11.2,24.1-21.9,36.7-32C88.8,198.9,96.2,198.7,103.6,198.7z M46.4,231.9
			c-1.3,6.9-2.5,13.8-3.5,20.7c15.6,15.7,31.2,31.5,46.8,47.2c6.5-0.5,12.9-0.9,19.3-1.2c0,0,0.1-0.1,0.1-0.1
			c9.5-8.9,19.2-17.4,29.1-25.4c0.3-0.2,0.5-0.4,0.8-0.6c1.1-6.2,2.3-12.3,3.6-18.5c0,0,0-0.1-0.1-0.1c0-0.1,0-0.1,0-0.2
			c-8.1-10.6-16.3-21.2-24.4-31.7c-9,6.9-17.9,14.1-26.6,21.6c4,4.6,8,9.3,12,13.9c2.3-1.9,4.5-3.9,6.8-5.8c2.8,3.3,5.5,6.6,8.3,9.9
			c-0.2,1.1-0.4,2.1-0.6,3.2c-4.6,3.9-9.2,7.9-13.7,11.9c-1.1,0-2.2,0.1-3.3,0.1c-11-12.1-21.9-24.1-32.9-36.2
			c0.2-1.1,0.4-2.3,0.6-3.4c5-4.5,10-8.8,15-13.1c1.1-0.1,2.3-0.1,3.4-0.2c2.7,3.3,5.5,6.6,8.2,9.8c6.5-5.5,13.1-10.7,19.8-15.9
			c-4.4-5.7-8.8-11.5-13.1-17.2c0,0-0.1,0.1-0.1,0.1c0,0,0-0.1-0.1-0.1c-6.8,0-13.6,0.2-20.5,0.5C69.6,210.9,57.9,221.1,46.4,231.9z
			 M96.3,230.7c-2.5-3-4.9-5.9-7.4-8.9c-1.8,0.1-3.6,0.1-5.5,0.2c-5.6,4.7-11.1,9.5-16.6,14.4c-0.3,1.8-0.7,3.6-1,5.4
			c11.3,12.4,22.7,24.8,34,37.1c1.7-0.1,3.5-0.2,5.2-0.2c4.9-4.5,9.9-8.8,15-13.1c0.3-1.7,0.6-3.4,0.9-5.1c-3.3-4-6.6-8-9.9-12
			c-2.3,1.9-4.6,3.8-6.9,5.8c-3.1-3.7-6.3-7.4-9.4-11.1c7.5-6.4,15.1-12.6,22.8-18.5c7.6,9.9,15.2,19.7,22.8,29.6
			c0,0,0.1,0.1,0.1,0.1c-1.2,5.6-2.3,11.3-3.3,16.9c0,0-0.1,0.1-0.1,0.1c-9.8,7.9-19.3,16.2-28.6,24.9c-5.8,0.3-11.7,0.6-17.5,1.1
			c-15.2-15.4-30.3-30.8-45.5-46.3c1-6.3,2.1-12.5,3.2-18.8c10.9-10.2,22-19.9,33.4-29.2c6.3-0.3,12.5-0.4,18.6-0.4
			c0,0,0.1,0.1,0.1,0.1c3.8,5,7.7,10,11.5,14.9C106.9,222.1,101.6,226.3,96.3,230.7z"/>
		<path class="st0" d="M187.9,145.3c5.8,11.1,11.6,22.2,17.5,33.3c-2.1,5-4.1,10.1-6.1,15.2c2.9,2.5,5.8,4.9,8.7,7.4
			c2.4-1.3,4.8-2.6,7.2-3.8c3.5,6.7,7,13.4,10.5,20.1c-7.7,4.1-15.4,8.3-22.9,12.8c-8.3-6.8-16.7-13.6-25.3-20.1
			c-1.5,1-3.1,1.9-4.6,2.9c1.4,2.2,2.7,4.3,4.1,6.5c1.9-1.2,3.8-2.4,5.8-3.6c4,6.4,7.9,12.9,11.9,19.3c-11.2,6.9-22.2,14.2-32.9,22
			c-4.4-6.1-8.9-12.2-13.3-18.4c1.9-1.4,3.8-2.7,5.7-4.1c-9.5-13.5-19.1-27-28.6-40.6c-2.1,1.5-4.1,2.9-6.2,4.4
			c-4.4-6.1-8.9-12.2-13.3-18.4c19.4-14.1,39.4-26.9,59.9-38.4C173.4,142.9,180.7,144,187.9,145.3z M108.9,180.3
			c3.7,5.2,7.5,10.4,11.2,15.6c2.1-1.5,4.1-3,6.2-4.4c10.1,14.5,20.3,29,30.4,43.5c-1.9,1.3-3.8,2.7-5.7,4
			c3.7,5.2,7.5,10.4,11.2,15.6c9.7-7,19.7-13.7,29.8-19.9c-3.4-5.4-6.8-10.9-10.1-16.3c-2,1.2-3.9,2.4-5.8,3.7c-2-3.1-4-6.2-6-9.3
			c2.6-1.6,5.1-3.2,7.7-4.8c8.6,6.6,17,13.3,25.3,20.2c6.6-3.9,13.3-7.6,20-11.2c-3-5.7-6-11.3-9-17c-2.2,1.2-4.4,2.3-6.5,3.5
			c-3.5-3-7-6-10.6-8.9c1.9-5.2,3.9-10.3,6-15.5c-5.6-10.6-11.3-21.3-16.9-31.9c-6.7-1.2-13.4-2.3-20.2-3.3
			C146.5,154.9,127.4,167,108.9,180.3z M200.7,179.4c-2.2,5.3-4.3,10.6-6.2,16c4.2,3.5,8.4,7,12.6,10.6c2-1.1,4.1-2.2,6.1-3.3
			c2.4,4.5,4.8,9,7.2,13.5c-5.6,3-11.2,6.2-16.8,9.4c-8.2-6.9-16.6-13.6-25.2-20.2c-3.7,2.3-7.4,4.6-11.1,7
			c2.7,4.2,5.4,8.4,8.1,12.6c1.9-1.2,3.9-2.5,5.8-3.7c2.7,4.3,5.4,8.6,8.1,12.9c-8.9,5.6-17.7,11.4-26.3,17.6
			c-3-4.1-5.9-8.3-8.9-12.4c1.9-1.3,3.8-2.7,5.7-4c-10.8-15.6-21.7-31.2-32.5-46.9c-2.1,1.5-4.2,2.9-6.3,4.4
			c-3-4.1-5.9-8.3-8.9-12.4c17.5-12.5,35.5-23.9,53.9-34.4c6.2,0.8,12.3,1.8,18.3,2.8C189.9,159,195.3,169.2,200.7,179.4z
			 M178.3,187.5c0.6-1.6,1.2-3.3,1.8-4.9c-3.4-5.8-6.7-11.6-10.1-17.4c-1.8-0.3-3.6-0.5-5.3-0.7c-6.8,4-13.5,8.2-20.2,12.5
			c4.8,7.5,9.6,15,14.5,22.5C165.4,195.3,171.8,191.3,178.3,187.5z M147.6,177.3c5.7-3.7,11.5-7.2,17.3-10.7
			c1.1,0.1,2.2,0.3,3.4,0.5c3.1,5.4,6.3,10.7,9.4,16.1c-0.4,1.1-0.9,2.1-1.3,3.2c-5.6,3.3-11.1,6.7-16.5,10.2
			C155.8,190.1,151.7,183.7,147.6,177.3z M160.9,193.8c4.6-2.9,9.3-5.8,14-8.6c0.2-0.6,0.4-1.1,0.6-1.7c-2.9-4.9-5.8-9.8-8.7-14.7
			c-0.6-0.1-1.2-0.2-1.8-0.2c-4.9,2.9-9.7,5.8-14.5,8.9C154,182.9,157.4,188.4,160.9,193.8z"/>
		<path class="st0" d="M270.2,95.3c2.4,7.2,4.9,14.3,7.3,21.5c-3,1-6,2.1-9,3.1c-2,12.2-3.6,24.3-4.9,36.4
			c2.1,5.4,4.2,10.7,6.3,16.1c2.1-0.8,4.2-1.6,6.3-2.4c2.7,7.1,5.3,14.1,8,21.2c-12.1,4.6-24,9.6-35.8,15.1
			c-3.2-6.9-6.4-13.7-9.6-20.6c2.1-1,4.1-1.9,6.2-2.8c-2.4-5.2-4.7-10.5-7.1-15.7c-9.6-7.5-19.5-14.8-29.6-21.9
			c-2.9,1.4-5.8,2.8-8.6,4.3c-3.4-6.7-6.8-13.5-10.2-20.2c12.2-6.2,24.7-12,37.2-17.3c2.9,6.9,5.9,13.7,8.8,20.6
			c1.5,1.2,3,2.4,4.5,3.6c0.2-1.9,0.4-3.8,0.6-5.7c-2.9-6.9-5.7-13.8-8.6-20.7C244.6,104.5,257.4,99.7,270.2,95.3z M242.1,128.2
			c0.3-0.1,0.7-0.3,1-0.4c-0.5,4.1-1,8.1-1.4,12.2c-3.2-2.5-6.5-5-9.7-7.5c0.3-0.1,0.6-0.2,0.9-0.4c-2.5-5.9-5.1-11.8-7.6-17.6
			c-11.1,4.8-22,9.9-32.9,15.3c2.9,5.7,5.8,11.4,8.6,17.2c2.6-1.3,5.3-2.6,8-3.9c10.6,7.4,20.8,15,30.8,22.9
			c2.6,5.9,5.2,11.8,7.9,17.7c-2.1,0.9-4.1,1.9-6.2,2.8c2.7,5.8,5.4,11.6,8,17.5c10.7-4.9,21.5-9.5,32.4-13.6c-2.3-6-4.6-12-6.9-18
			c-0.7,0.3-1.4,0.5-2.1,0.8c-1.4,0.6-2.9,1.1-4.3,1.7c-2.4-6-4.8-12-7.1-18c1.3-12.6,3-25.3,5-38c2.8-1,5.6-2,8.4-3
			c-2.1-6.1-4.2-12.1-6.3-18.2c-11.4,3.9-22.7,8.2-33.9,12.8C237.2,116.4,239.7,122.3,242.1,128.2z M266.9,100.4
			c1.7,4.8,3.4,9.6,5,14.4c-2.5,0.9-5.1,1.8-7.6,2.7c-2.1,13.3-3.8,26.5-5.1,39.7c2.7,6.7,5.4,13.5,8.1,20.2
			c2.1-0.8,4.2-1.7,6.3-2.5c1.8,4.7,3.7,9.5,5.5,14.2c-9.6,3.7-19.1,7.7-28.5,12c-2.1-4.6-4.2-9.3-6.3-13.9c2.1-0.9,4.1-1.9,6.2-2.8
			c-2.9-6.7-5.9-13.3-8.8-20c-10.4-8.2-21.2-16.2-32.2-24c-2.4,1.2-4.8,2.3-7.2,3.5c-2.3-4.6-4.5-9.1-6.8-13.7
			c9.3-4.6,18.8-9,28.3-13.2c2,4.7,4.1,9.3,6.1,14c-0.8,0.3-1.5,0.7-2.3,1c5.4,4,10.7,8,15.9,12.1c0.7-6.6,1.5-13.1,2.3-19.7
			c-0.7,0.3-1.4,0.6-2.2,0.9c-1.9-4.7-3.8-9.4-5.8-14.2C247.5,107.4,257.2,103.8,266.9,100.4z"/>
		<path class="st0" d="M337.6,105.9c-0.4-1.9-0.9-3.8-1.3-5.8c-5.3,1.2-10.5,2.5-15.8,3.8c1.1,4.3,2.2,8.6,3.3,12.9
			c7.9-2,15.9-3.9,23.9-5.6c1.5,7.1,3.1,14.3,4.6,21.4c-7.7,1.6-15.3,3.4-23,5.4c1.2,4.7,2.4,9.3,3.6,14c3.8-1,7.5-1.9,11.3-2.8
			c1.7,7.4,3.5,14.7,5.2,22.1c-14,3.3-27.9,7.2-41.6,11.6c-2.3-7.2-4.7-14.4-7-21.6c2.1-0.7,4.3-1.4,6.4-2
			c-4.9-15.8-9.8-31.6-14.7-47.4c-2.3,0.7-4.7,1.5-7,2.2c-2.3-7.2-4.7-14.4-7-21.6c26.6-8.6,53.7-15.4,81.1-20.3
			c1.7,9.4,3.4,18.7,5.1,28.1C355.7,102,346.6,103.8,337.6,105.9z M338,98c0.4,1.9,0.9,3.8,1.3,5.8c7.6-1.7,15.3-3.3,23-4.7
			c-1.5-8.2-3-16.5-4.6-24.7c-25.8,4.7-51.4,11.1-76.6,19.2c2,6.1,3.9,12.2,5.9,18.3c2.3-0.8,4.7-1.5,7.1-2.2
			c5.2,16.9,10.4,33.8,15.6,50.7c-2.1,0.7-4.3,1.3-6.4,2c2,6.1,3.9,12.2,5.9,18.3c12.6-4,25.2-7.5,38-10.6c-1.5-6.2-3-12.5-4.5-18.7
			c-3.8,0.9-7.5,1.8-11.3,2.8c-1.5-5.8-3-11.5-4.5-17.3c7.7-2,15.4-3.9,23.2-5.5c-1.3-6-2.6-12-3.9-18.1c-8,1.7-16,3.6-23.9,5.7
			c-1.4-5.4-2.8-10.8-4.3-16.2C324.6,101.1,331.3,99.5,338,98z M340,95.5c-8.3,1.8-16.6,3.8-24.8,6c1.8,6.7,3.6,13.3,5.3,20
			c7.9-2.1,15.8-4,23.8-5.8c1,4.7,2.1,9.5,3.1,14.2c-7.8,1.7-15.5,3.6-23.2,5.6c1.9,7,3.7,14,5.6,21.1c3.7-1,7.5-1.9,11.2-2.9
			c1.2,4.9,2.4,9.9,3.6,14.8c-11.4,2.8-22.8,6-34.1,9.5c-1.5-4.9-3.1-9.7-4.6-14.6c2.1-0.7,4.3-1.3,6.4-2
			c-5.5-18.2-11-36.4-16.5-54.6c-2.4,0.7-4.7,1.4-7.1,2.2c-1.5-4.9-3.1-9.7-4.6-14.6c23.6-7.4,47.5-13.4,71.6-17.9
			c1.3,6.9,2.6,13.9,3.9,20.8c-6.2,1.2-12.3,2.4-18.5,3.8C340.8,99.4,340.4,97.4,340,95.5z"/>
		<path class="st0" d="M429.1,92.3c-0.1-2-0.3-3.9-0.4-5.9c-5.4,0.4-10.7,0.8-16.1,1.3c0.4,4.4,0.9,8.8,1.3,13.2
			c8.1-0.8,16.2-1.4,24.3-1.8c0.4,7.3,0.8,14.6,1.2,21.9c-7.8,0.4-15.6,1-23.4,1.8c0.5,4.8,0.9,9.6,1.4,14.3c3.8-0.4,7.7-0.7,11.5-1
			c0.6,7.5,1.1,15.1,1.7,22.6c-14.3,1.1-28.5,2.7-42.7,5c-1.2-7.5-2.4-14.9-3.5-22.4c2.2-0.3,4.4-0.7,6.6-1
			c-2.4-16.4-4.8-32.7-7.2-49.1c-2.4,0.4-4.8,0.7-7.2,1.1c-1.2-7.5-2.4-14.9-3.5-22.4c27.5-4.3,55.1-6.8,82.9-7.5
			c0.2,9.5,0.4,19,0.7,28.6C447.4,91.3,438.2,91.7,429.1,92.3z M430.7,84.6c0.1,2,0.3,3.9,0.4,5.9c7.8-0.5,15.6-0.9,23.4-1.1
			c-0.2-8.4-0.4-16.7-0.7-25.1c-26.2,0.7-52.3,3-78.3,7c1,6.3,2,12.7,2.9,19c2.4-0.4,4.8-0.7,7.3-1.1c2.5,17.5,5,35,7.5,52.6
			c-2.2,0.3-4.4,0.6-6.6,1c1,6.3,2,12.7,2.9,19c12.9-2,25.9-3.5,39-4.5c-0.5-6.4-1-12.8-1.5-19.2c-3.8,0.3-7.7,0.6-11.5,1
			c-0.6-5.9-1.2-11.8-1.8-17.8c7.9-0.8,15.7-1.4,23.6-1.9c-0.4-6.1-0.7-12.3-1.1-18.4c-8.1,0.5-16.3,1.1-24.4,1.9
			c-0.6-5.6-1.1-11.1-1.7-16.7C417,85.6,423.8,85,430.7,84.6z M433,82.5c-8.5,0.5-16.9,1.2-25.3,2.1c0.7,6.9,1.4,13.7,2.2,20.6
			c8.1-0.8,16.2-1.5,24.3-2c0.3,4.8,0.6,9.7,0.9,14.5c-7.9,0.5-15.8,1.1-23.7,2c0.8,7.2,1.5,14.5,2.3,21.7c3.8-0.4,7.6-0.8,11.5-1.1
			c0.4,5.1,0.8,10.1,1.3,15.2c-11.7,1-23.3,2.3-34.9,4.1c-0.8-5-1.5-10.1-2.3-15.1c2.2-0.3,4.4-0.6,6.6-0.9
			c-2.6-18.8-5.2-37.7-7.8-56.5c-2.4,0.3-4.9,0.7-7.3,1c-0.8-5-1.5-10.1-2.3-15.1c24.3-3.6,48.7-5.8,73.2-6.6
			c0.2,7.1,0.4,14.1,0.6,21.2c-6.3,0.2-12.5,0.5-18.8,0.9C433.2,86.4,433.1,84.4,433,82.5z"/>
		<path class="st0" d="M539.3,148.3c-5.5,3.8-10.9,7.7-16.2,11.7c-12.9-1.3-25.8-2.1-38.7-2.4c-4.8-4.6-9.7-9.2-14.7-13.7
			c0-22.6-0.1-45.2-0.1-67.9c5.7-4.5,11.4-9,17.3-13.3c15.3,0.4,30.5,1.4,45.7,2.9c5.3,5,10.4,10.1,15.4,15.3
			C545.1,103.2,542.2,125.8,539.3,148.3z M545.7,81.1c-4.7-4.7-9.4-9.4-14.3-14c-14.6-1.4-29.2-2.4-43.8-2.8
			c-5.4,4-10.7,8.1-15.9,12.2c-0.1,22.2-0.1,44.3-0.2,66.5c4.6,4.2,9.1,8.5,13.5,12.8c0,0,0.1,0,0.1,0c12.4,0.3,24.8,1.1,37.2,2.4
			c4.9-3.6,9.8-7.2,14.9-10.7C540.1,125.3,542.9,103.2,545.7,81.1z M543.2,81.6c-2.6,21.6-5.2,43.1-7.8,64.7
			c-4.6,3.2-9.1,6.5-13.5,9.8c-11.9-1.2-23.8-1.9-35.8-2.3c-4-3.9-8.1-7.7-12.3-11.6c0.1-21.6,0.3-43.3,0.4-64.9
			c4.7-3.7,9.6-7.4,14.5-11.1c13.9,0.4,27.8,1.3,41.7,2.6C534.7,73.1,539,77.3,543.2,81.6z M522.6,86.9c-1.3-1.2-2.5-2.4-3.8-3.7
			c-6.9-0.6-13.7-1-20.6-1.3c-1.4,1-2.8,2.1-4.3,3.1c-0.7,16.8-1.3,33.6-2,50.3c1.2,1.2,2.4,2.3,3.6,3.5c6.2,0.3,12.5,0.7,18.7,1.2
			c1.3-1,2.7-2,4-3C519.7,120.4,521.1,103.6,522.6,86.9z M517.7,85.1c0.8,0.8,1.6,1.5,2.4,2.3c-1.4,16.2-2.7,32.5-4.1,48.7
			c-0.8,0.6-1.7,1.3-2.5,1.9c-5.7-0.4-11.4-0.8-17.1-1.1c-0.8-0.7-1.5-1.5-2.3-2.2c0.7-16.3,1.4-32.6,2.1-48.8
			c0.9-0.7,1.8-1.3,2.7-2C505.2,84.3,511.5,84.6,517.7,85.1z M517.9,88c-0.4-0.4-0.9-0.8-1.3-1.2c-5.6-0.4-11.2-0.8-16.9-1.1
			c-0.5,0.3-0.9,0.7-1.4,1c-0.7,15.8-1.5,31.6-2.2,47.4c0.4,0.4,0.8,0.8,1.2,1.2c5.2,0.3,10.3,0.6,15.5,1c0.4-0.3,0.9-0.7,1.3-1
			C515.4,119.5,516.7,103.8,517.9,88z"/>
		<path class="st0" d="M649.2,112.3c-2.3-0.7-4.6-1.4-6.9-2.1c-6.9,23.1-13.9,46.2-20.8,69.3c-9.9-3-19.8-5.6-29.8-8
			c-1.7-15-3.8-29.9-6.3-44.9c-1.3,6.5-2.7,12.9-4,19.4c2.1,0.4,4.3,0.9,6.4,1.4c-1.6,7.4-3.2,14.8-4.9,22.1
			c-11.9-2.6-24-4.8-36-6.6c1.1-7.5,2.2-14.9,3.3-22.4c2.2,0.3,4.4,0.7,6.6,1c2.6-16.3,5.2-32.7,7.8-49c-2.4-0.4-4.8-0.8-7.2-1.1
			c1.1-7.5,2.2-14.9,3.3-22.4c14.4,2.1,28.7,4.7,43,7.8c3.1,14.5,5.7,29.1,8,43.6c1.5-5.8,2.9-11.6,4.4-17.4
			c-2.4-0.6-4.8-1.2-7.1-1.7c1.8-7.3,3.5-14.7,5.3-22c14,3.3,27.9,7.1,41.7,11.4C653.7,97.8,651.5,105,649.2,112.3z M616.1,81.4
			c-1.5,6.2-3,12.4-4.5,18.7c2.4,0.6,4.8,1.2,7.1,1.8c-2.5,9.7-5,19.4-7.4,29.1c-2.5-17.6-5.7-35.2-9.4-52.8
			c-13-2.8-26-5.2-39.1-7.2c-1,6.3-1.9,12.7-2.9,19c2.4,0.4,4.8,0.7,7.2,1.1c-2.9,17.5-5.7,34.9-8.6,52.4c-2.2-0.4-4.4-0.7-6.6-1
			c-1,6.3-1.9,12.7-2.9,19c10.9,1.6,21.7,3.6,32.4,5.9c1.3-6.3,2.7-12.5,4-18.8c-2.2-0.5-4.4-0.9-6.6-1.4
			c2.1-10.5,4.3-21.1,6.4-31.6c3.3,18.2,6,36.3,8.1,54.5c8.9,2.1,17.8,4.5,26.6,7.1c6.8-23.1,13.7-46.2,20.5-69.3
			c2.4,0.7,4.7,1.4,7.1,2.1c1.9-6.1,3.8-12.2,5.7-18.4C641,87.8,628.6,84.4,616.1,81.4z M646,107.4c-2.4-0.7-4.7-1.4-7.1-2.1
			c-6.8,23.1-13.5,46.3-20.3,69.4c-7.7-2.2-15.5-4.3-23.3-6.2c-2.4-21.7-5.7-43.4-9.8-65.1c-3,15.1-6,30.2-9,45.3
			c2.1,0.4,4.3,0.9,6.4,1.3c-1.1,5-2.1,10-3.2,14.9c-9.4-2-18.8-3.7-28.3-5.2c0.8-5,1.6-10.1,2.3-15.1c2.2,0.3,4.4,0.7,6.6,1.1
			c3.1-18.7,6.3-37.5,9.4-56.2c-2.4-0.4-4.8-0.8-7.3-1.2c0.8-5,1.6-10.1,2.3-15.1c11.7,1.8,23.3,3.9,34.8,6.4
			c4.5,20.9,8.1,41.8,10.9,62.7c3.6-13.9,7.2-27.9,10.9-41.8c-2.4-0.6-4.8-1.2-7.2-1.8c1.2-4.9,2.4-9.9,3.7-14.8
			c10.9,2.7,21.7,5.6,32.5,8.9C649,97.7,647.5,102.5,646,107.4z"/>
		<path class="st0" d="M742.7,140.2c-10.1,20.2-20.3,40.4-30.4,60.7c-6.6,1.7-13.2,3.6-19.6,5.6c-17.9-8.4-36.2-15.6-54.8-21.9
			c2.4-7.2,4.8-14.3,7.2-21.5c2.1,0.7,4.3,1.4,6.4,2.2c5.5-15.6,10.9-31.2,16.4-46.9c-2.3-0.8-4.7-1.6-7-2.4
			c2.4-7.2,4.8-14.3,7.2-21.5c21.9,7.3,43.5,16,64.7,25.8C736.3,127,739.6,133.6,742.7,140.2z M669.7,96.9
			c-2.1,6.1-4.1,12.1-6.2,18.2c2.3,0.8,4.7,1.6,7,2.4c-5.9,16.7-11.8,33.4-17.7,50c-2.1-0.7-4.2-1.5-6.4-2.2
			c-2.1,6.1-4.1,12.1-6.2,18.2c17.8,6,35.3,13,52.4,21c5.9-1.9,12-3.6,18.1-5.3c9.9-19.9,19.7-39.7,29.6-59.6
			c-2.9-6.1-5.9-12.1-9.1-18.2C711.1,112.2,690.5,104,669.7,96.9z M737.8,139.4c-9.6,19.4-19.1,38.8-28.7,58.3
			c-5.5,1.5-11,3.1-16.4,4.7c-16.3-7.5-33-14.2-49.8-20c1.7-4.8,3.3-9.6,5-14.4c2.1,0.7,4.2,1.5,6.3,2.2
			c6.4-17.9,12.8-35.8,19.2-53.7c-2.3-0.8-4.7-1.7-7-2.5c1.7-4.8,3.3-9.6,5-14.4c19.7,6.8,39,14.5,58.1,23.3
			C732.4,128.4,735.1,133.9,737.8,139.4z M716.3,137.4c-0.8-1.6-1.6-3.2-2.5-4.7c-7.1-3.1-14.3-6.2-21.5-9c-7,17.7-14,35.3-21,53
			c6.5,2.6,13,5.3,19.5,8.2c1.6-0.5,3.2-1,4.8-1.5C702.5,168,709.4,152.7,716.3,137.4z M693.8,126.3c6.1,2.5,12.2,5,18.3,7.7
			c0.6,1,1.1,2,1.7,3c-6.6,14.9-13.3,29.8-19.9,44.7c-1.1,0.3-2.1,0.6-3.2,0.9c-5.5-2.4-11.1-4.8-16.7-7
			C680.6,159.1,687.2,142.7,693.8,126.3z M676.6,174.8c4.7,1.9,9.4,3.9,14.1,5.9c0.5-0.2,1.1-0.3,1.6-0.5
			c6.4-14.5,12.8-28.9,19.2-43.4c-0.3-0.5-0.6-1.1-1-1.6c-5.1-2.2-10.1-4.4-15.2-6.4C689.1,144.1,682.8,159.4,676.6,174.8z"/>
		<path class="st0" d="M783.5,244c-6.8,0.6-13.6,1.4-20.3,2.3c-11.2-7.5-22.5-14.5-34.1-21.1c-2.2-6.4-4.5-12.8-6.9-19.2
			c10.6-20,21.1-40,31.7-60c7.2-1.3,14.6-2.4,22-3.4c13.7,7.7,27.1,16,40.3,24.9c2.5,7,4.8,14.1,6.9,21.1
			C809.8,207,796.6,225.5,783.5,244z M820.8,187.7c-2.1-6.5-4.2-13-6.5-19.5c-12.6-8.5-25.5-16.4-38.6-23.9
			c-6.8,0.9-13.5,2-20.2,3.1c-10.4,19.6-20.8,39.1-31.3,58.7c2.2,5.9,4.3,11.9,6.3,17.8c0,0,0.1,0,0.1,0.1
			c11.1,6.3,22.1,13.1,32.8,20.3c6.1-0.8,12.4-1.5,18.6-2.1C795,224.1,807.9,205.9,820.8,187.7z M818.2,186.9
			c-12.5,17.8-24.9,35.6-37.4,53.4c-5.7,0.6-11.4,1.2-17,2c-10.3-6.9-20.8-13.4-31.5-19.5c-1.8-5.4-3.7-10.8-5.8-16.2
			c10.2-19.1,20.5-38.1,30.7-57.2c6.1-1,12.2-2,18.3-2.8c12.4,7.1,24.7,14.6,36.7,22.7C814.4,175.2,816.4,181.1,818.2,186.9z
			 M796.9,181.4c-0.6-1.7-1.2-3.4-1.8-5.1c-6-3.9-12.1-7.6-18.2-11.2c-1.8,0.2-3.6,0.5-5.3,0.7c-8.5,14.5-16.9,29-25.4,43.5
			c0.6,1.6,1.1,3.2,1.7,4.8c5.5,3.3,11,6.7,16.5,10.2c1.7-0.2,3.4-0.5,5.1-0.7C778.6,209.6,787.8,195.5,796.9,181.4z M793.3,177.5
			c0.4,1.1,0.8,2.1,1.1,3.2c-8.8,13.7-17.7,27.4-26.5,41.1c-1.1,0.1-2.1,0.3-3.2,0.4c-5-3.2-10-6.3-15-9.3c-0.3-1-0.7-2-1-3
			c8.3-14.1,16.5-28.1,24.8-42.2c1.1-0.2,2.2-0.3,3.4-0.4C782.3,170.6,787.8,174,793.3,177.5z M792.1,180.1
			c-0.2-0.6-0.4-1.1-0.6-1.7c-4.9-3.1-9.9-6.2-14.9-9.2c-0.6,0.1-1.2,0.2-1.8,0.2c-8.1,13.6-16.1,27.2-24.2,40.8
			c0.2,0.5,0.4,1.1,0.5,1.6c4.6,2.7,9.1,5.5,13.6,8.4c0.6-0.1,1.1-0.2,1.7-0.2C775.1,206.7,783.6,193.4,792.1,180.1z"/>
		<path class="st0" d="M899.8,253.8c-8.9,8.9-17.7,17.7-26.6,26.6c-5.6-0.7-11.2-1.2-16.7-1.7c-1.4,3.6-2.9,7.1-4.4,10.7
			c2,2,4.1,4,6.1,6c-5.3,5.3-10.7,10.7-16,16c-6.5-6.5-13.1-12.8-19.9-18.9c4-10,7.8-20.1,11.4-30.4c-1.4-1.2-2.8-2.4-4.2-3.6
			c-1.6,1.9-3.3,3.9-4.9,5.8c1.8,1.5,3.5,3,5.3,4.5c-5,5.7-9.9,11.4-14.9,17.1c-10.2-8.9-20.6-17.3-31.3-25.2
			c4.5-6.1,9-12.1,13.5-18.2c1.9,1.4,3.7,2.8,5.6,4.2c10-13.2,20.1-26.3,30.1-39.5c-2-1.6-4.1-3.1-6.1-4.6c4.5-6.1,9-12.1,13.5-18.2
			c19.2,14.3,37.9,29.9,55.7,46.7C897.4,238.7,898.7,246.3,899.8,253.8z M841.1,187.3c-3.8,5.1-7.7,10.3-11.5,15.4
			c2,1.5,4.1,3.1,6.1,4.6c-10.8,14-21.6,28.1-32.3,42.1c-1.9-1.4-3.7-2.8-5.6-4.2c-3.8,5.1-7.7,10.3-11.5,15.4
			c9.6,7.2,19.1,14.8,28.3,22.8c4.2-4.9,8.4-9.7,12.5-14.6c-1.8-1.5-3.6-3.1-5.4-4.6c2.4-2.8,4.7-5.7,7.1-8.5c2.4,2,4.7,4,7.1,6.1
			c-3.6,10.2-7.4,20.4-11.4,30.4c5.9,5.3,11.6,10.8,17.3,16.4c4.5-4.5,9-9.1,13.5-13.6c-1.8-1.8-3.7-3.6-5.6-5.4
			c1.8-4.3,3.5-8.6,5.2-12.9c5.6,0.4,11.3,0.9,17,1.6c8.5-8.5,16.9-17.1,25.4-25.6c-1-6.9-2.2-13.8-3.4-20.8
			C877,215.8,859.4,200.9,841.1,187.3z M870.9,276c-5.9-0.7-11.7-1.2-17.5-1.6c-2,5.1-4.1,10.2-6.2,15.3c1.8,1.7,3.5,3.4,5.2,5.1
			c-3.6,3.6-7.1,7.3-10.7,10.9c-4.8-4.7-9.6-9.3-14.6-13.8c4-10,7.8-20.1,11.5-30.4c-3.4-3-6.8-5.9-10.2-8.7
			c-3.2,3.9-6.4,7.7-9.6,11.6c1.8,1.5,3.6,3,5.4,4.5c-3.3,3.9-6.6,7.7-9.9,11.6c-8.2-7-16.5-13.7-25-20.1c3.1-4.1,6.1-8.1,9.2-12.2
			c1.9,1.4,3.7,2.8,5.5,4.2c11.6-15,23.3-30.1,34.9-45.1c-2-1.6-4.1-3.1-6.1-4.7c3.1-4.1,6.1-8.1,9.2-12.2c17.2,13,33.9,27,50,42.1
			c1.2,6.3,2.3,12.6,3.2,18.8C887.1,259.5,879,267.8,870.9,276z M855.8,256.3c1.8,0.1,3.6,0.2,5.4,0.4c4.5-4.9,9-9.9,13.6-14.8
			c-0.3-1.8-0.7-3.6-1-5.4c-6.1-5.5-12.2-10.8-18.4-16c-5.7,6.8-11.4,13.7-17.1,20.5C844.1,246,850,251.1,855.8,256.3z M855.9,223.5
			c5.3,4.5,10.6,9,15.8,13.7c0.2,1.1,0.4,2.3,0.6,3.4c-4.2,4.6-8.3,9.2-12.5,13.8c-1.2-0.1-2.3-0.2-3.5-0.3c-5-4.5-10-8.8-15.1-13.1
			C846.1,235.2,851,229.4,855.9,223.5z M844.1,241.2c4.3,3.6,8.5,7.3,12.7,11.1c0.6,0,1.2,0.1,1.8,0.1c3.8-4.2,7.6-8.5,11.5-12.7
			c-0.1-0.6-0.2-1.2-0.3-1.8c-4.3-3.9-8.7-7.7-13.2-11.5C852.5,231.3,848.3,236.3,844.1,241.2z"/>
	</g>
</g>
<g>
	<path class="st1" d="M305.1,860.7c-27.2-21.3-40.2-49.8-40.6-85.4c-13.7,10.3-27.9,14.6-45.8,12.6c18.1-11.3,24.7-28.4,28.5-46.2
		c8.4-39.1,31-64.5,68.3-78.9c16.7-6.4,32-16.6,49.1-25.7c-0.6,7.2,0,16-2.1,24.1c-5.3,21-18.6,37.1-33.4,52.6
		c-16.2,17.1-32.9,34.3-39.4,58c-7.3,27-0.5,52.3,9.9,77.1C301.4,852.8,303.3,856.8,305.1,860.7z"/>
	<path class="st1" d="M399.3,513.1c-3,34.9-26.5,57.9-63,64.8c-12.6,2.4-25.4,4-38.2,5.9c-21.1,3.1-38.8,13.7-56.5,24.7
		c-8.3,5.2-17.4,9-26.1,13.5c-0.3-0.7-0.7-1.5-1-2.2c16.4-17.6,32.8-35.2,49.1-52.7c-13.7,3.1-22.5,13.8-32,24.5
		c5.9-29.9,32.5-48,64.9-45c13.1,1.2,26.4,2.6,39.5,2.2c23.2-0.7,42.2-11.2,57.7-28.2C395.8,518.2,397.4,515.6,399.3,513.1z"/>
	<path class="st1" d="M380.3,686.7c-4.1,11.1-8,22.2-12.3,33.1c-6.4,16.3-14.6,32.1-19.2,48.9c-6.3,22.5,0.4,44.2,9.5,65
		c1.9,4.3,4.2,8.4,6.3,12.7c-0.7,0.5-1.4,1-2.1,1.5c-7.3-10-15.9-19.4-21.5-30.2c-5.8-11.2-8.7-23.9-12.8-35.6
		c-4.8,14.8-2.9,29.7,4.2,44c6.6,13.2,14.5,25.8,20.3,39.3c7,16.5,12.4,33.8,18.8,51.8c-15.9-25.1-31-48.7-45.9-72.5
		c-5.3-8.5-10.6-17.1-14.9-26.2c-12.9-26.7-8.4-51.4,10.3-73.6c6.5-7.7,13.8-14.7,20.9-21.9c12.1-12.2,24.4-24.2,36.7-36.3
		C379.1,686.7,379.7,686.7,380.3,686.7z"/>
	<path class="st1" d="M366.9,583.7c-5.6,14.1-15.7,23.7-31,27.2c-34.3,7.9-59.7,26.5-74.6,59.2c-5.8,12.8-13.1,25.1-21,36.8
		c-8,11.8-19.2,19.5-36.3,19.1c14.4-12.2,16.9-28.4,21.1-43.7c1-3.6,1.8-7.3,2.4-11c7.5-41.7,33.3-64.4,74.1-72.3
		C323.4,594.7,344.9,588.9,366.9,583.7z"/>
	<path class="st1" d="M279.6,533.9c6.6-2.9,13.2-5.8,19.8-8.8c-11.6-37.8-8.1-59.7,11.8-72.9c17.1-11.3,43.2-8.8,62.2,6.4
		c-20.6-3.4-41.2-5-52.6,15.3c-13.5,24-0.6,44.5,13.5,63.1c-18.1,0-35.9,0-53.7,0C280.3,536.1,280,535,279.6,533.9z"/>
	<path class="st1" d="M361.8,524.3c3-26.9-2.2-32.6-31.2-36c8.1-10.2,14.2-11.1,44.4-6.2c-1.5-2.2-2.7-3.7-5.6-7.8
		c8.2,2.3,14.6,3.2,20.1,5.9c7.5,3.6,8.7,11.4,3.6,19.4C385.8,511.2,375,518.5,361.8,524.3z"/>
	<path class="st1" d="M614.3,524.2c-14.1-5.5-23.9-13-31.1-23.5c-7.4-10.8-4.2-19,8.5-22.9c4.1-1.3,8.5-1.7,13.6-2.6
		c-1.4,2.6-2.2,4.1-3.5,6.4c15.4-1.9,30.6-6.8,45,7.2C621.8,487.9,608.2,497.2,614.3,524.2z"/>
	<path class="st1" d="M575,566.7c-3.3,12.5-12.6,18.7-25.4,20.8c-9.2,1.5-16.9,5-18.4,16.6c-9.2-23.2,0-37.4,23.1-37.4
		C561.1,566.7,567.8,566.7,575,566.7z"/>
	<path class="st1" d="M442.8,602c-4.5-9.9-12.2-13-21.4-14.6c-12.6-2.2-21.7-8.7-24.5-20.7c7.8,0,15.5,0,23.2,0
		c16.8,0.1,23.4,6.7,23.2,23.4C443.3,594.1,442.9,598.1,442.8,602z"/>
	<path class="st1" d="M404.6,676.7c-8.4-12.8-16.2-24.8-24.1-36.8c-10.6-15.9-7.2-31.4,1.8-48c-0.7,14-7.9,29,10.7,37.2
		c0,3.1-0.6,7.5,0.2,11.7c0.7,4.1,1.6,9.2,4.3,11.8C404.5,659.3,406.2,666.9,404.6,676.7z"/>
	<path class="st1" d="M652.7,619.8c16.7,9.4,34,18.1,49.3,29.4c24.1,17.9,36.6,43.7,43.4,72.7c7.3-40.1-2.5-76-26.8-110.8
		c10.2,3.6,18.2,6.5,26.6,9.5c-1.9-20.9-7.1-40.7-19.1-58.3c-13.8-20.3-34.1-31.1-56.1-37.4c1.6-6.8,3.2-12.8,4.4-18.9
		c3.2-16.4,0.3-34.9,17.2-46.1c-5.5-2.6-10.2-4.8-15-7c3.3-3.8,6.1-7,10.2-11.7c-14,0-26,0-39.6,0c4.5-4.1,7.6-7,10.7-9.8
		c-0.3-0.9-0.7-1.9-1-2.8c-20.2,4.7-40.3,9.3-60.5,14c-0.6-0.4-1.1-0.9-1.7-1.3c8.4-8.5,16.7-17.1,27.1-27.6
		c-14.3,1.5-26.7,2.8-37.6,4c1.2-11.2,2.4-23,3.5-33.2c-18.7,10.3-36.8,20.3-56.5,31.1c4.1-10.3,7.7-19,11.8-29.2
		c-7.6,4.1-13.7,7.5-20.7,11.3c2.7-22.8,1.2-43.7-10.9-64c-6.5,13.4-18.3,18.9-30,24.1c-23.9,10.5-41.9,26.1-46.6,54.3
		c-15.1-15-32-23.4-52.8-25.2c3.4,10.1,4.9,19.9,9.8,27.7c4.8,7.7,12.9,13.2,19.6,19.7c-0.5,0.6-1.1,1.2-1.6,1.8
		c-15.5-12-31.2-23.4-53.8-20c6.3,4.8,11.6,8.8,16,12.2c-12.3,1.1-24.8,2.2-37.3,3.3c1,2.9,1.7,3.5,2.6,3.7
		c46,11.5,79.9,38.6,102.6,80c0.9,1.7,2.7,3.5,4.4,4.2c14.3,5.8,28.8,11.5,44.8,17.8c12.9-11.7,30.8-19.5,50.5-23.8
		c2.9-0.6,5.2-4.6,7.3-7.3c9.3-11.8,17.1-25.1,27.8-35.2c14.1-13.3,31.9-18.6,51.6-13.7c18.8,4.7,30.8,17.1,33.2,34.4
		c2.4,17.6-6.4,38-20,44.9c-17.7,9.1-32.8,1.5-45.9-9.6c-9.7-8.3-17.4-18.8-25.7-27.9c-7.8,13.5-7.8,26.4,1.1,40.3
		c3.2,5,7.2,9.6,10.8,14.3c6.8,9,13.2,18.1,14.2,30.2c-4.2-1.2-7.7-2.2-11.1-3.1c1.9,6.8,5.1,13.2,5.4,19.7
		c1.2,27,14.7,46.9,34.6,63.4c10.9,9.1,22.3,17.6,33,26.9c23.9,20.8,41,45.2,41.5,78.4c0.4,23.6-7.1,45.2-17.5,65.9
		c-1.5,3-2.8,6.1-4.1,9.2c21.5-19.2,36.3-42.2,43.7-69.6c11.9-43.8-1.3-75.4-40.8-98c-10.1-5.8-20.3-11.4-30.7-16.7
		c-30.9-15.9-45.9-40.1-39.5-78.6C618.4,602.4,636,610.4,652.7,619.8z M479.5,515.1c-23.9-23.8-39.2-51.5-36.8-86.4
		c2-29.4,20.2-47.1,45.4-59.6c-39.3,46.5-34.3,95.1-7.5,144.6C480.1,514.3,479.8,514.7,479.5,515.1z M489.5,458.4
		c-17-18.1-14.5-40.5,7.6-60.9C494.7,417.2,492,438.4,489.5,458.4z M548.1,440.5c-12.6,10-25.8,19.2-29.3,38.3
		c-4.4-21.7,1.8-29.8,42.2-58.6c0.9,0.7,1.9,1.3,2.8,2C558.6,428.3,554.3,435.6,548.1,440.5z M601,543.6
		c20.3,12.1,40.9,9.8,60.8,11.9c8.7,0.9,17.6,1.7,25.9,4.1c15.5,4.5,26.6,14.5,33.8,31.7c-24.3-14.4-50-12.2-74.7-15.1
		C626.5,573.9,611.1,564.6,601,543.6z"/>
	<path class="st1" d="M655.8,742.9c-9.8-11.8-21.6-22.1-33.2-32.3c-21.5-18.9-35.1-42-38.6-70.7c-6.8,3.6-0.2,18.2-12.6,15.9
		c-1.9,7.1-3.7,14-6,22.6c-12.1-15.3-32.7-20.6-30.5-43c-3.6,13.8,0.2,28.5-11,38.3c-6.7-1.1-13.2-2.4-19-0.8
		c-13.1,3.4-25.7,4.2-38.9,0.3c-5.4-1.6-11.6-0.3-19.6-0.3c-2.1-3.5-5.2-8.8-8.5-14.5c0.4,16.3,10.1,31.2,19.9,30.9
		c0.4-2.2,0.8-4.5,1.8-9.5c3,4.6,4.9,7.1,6.4,9.8c1.9,3.4,2.8,7.5,5.3,10.3c11,12.3,9.1,25.8-5.5,32.7c-7.9,3.7-16.6,5.7-24.9,8.5
		c-6.5,2.2-10.3,0-11.6-7c4.9-1.5,9.8-3,14.6-4.5c-19.4,0.3-20.8-0.5-22.5-12.6c8.8,1.2,17.7,2.4,26.6,3.6
		c-28.4-7.2-31.9-9.2-30.7-19.2c5.9,2.1,11.6,4.6,17.6,6.1c6,1.5,12.3,2.1,18.4,3C415.9,695,415.9,695,416,688.3
		c5.2,2,10.4,4.1,17.5,6.9c-8.2-7.7-14.7-13.7-22.7-21.2c-5.4,11.6-10.8,22.8-15.8,34.1c-6.5,14.9-13.5,29.7-18.8,45
		c-5.3,15.4-4.4,28.6-0.1,36.3c2.5-15.6,5-31.3,15.6-44.5c-16.7,47.8-13.8,93.4,14.5,136.3c-0.8-2.7-1.6-5.3-2.3-8
		c-9-35.9-6-69.9,15.5-101.1c23-33.2,73-44.6,108.1-24.6c14.8,8.4,16.7,21,5.1,32.7c-3.5-2.9-7-5.7-9.9-8.1
		c-2.6,8.3-4.9,15.9-7.7,24.8c-3.3-6.3-5.6-10.8-7.8-15.1c-7.2,9.7-13.8,18.7-21.5,29.1c-7.8-10.9-14.3-20-21.1-29.6
		c-2.4,4.6-4.8,9.3-8.3,16c-2.8-9.8-4.9-17.5-7.3-25.8c-3.4,3-7.1,6.3-11.3,10c-1.8-4.6-3.5-8.9-5.5-14
		c-18.9,23.7-27.4,49.6-17.9,78.1c7.8,23.4,19,45.7,29.1,68.3c9.7,21.6,17.9,43.1,7.8,67.2c2.9-2.5,5.2-5,7.2-7.8
		c15.1-20.6,15.8-43.1,8.1-66.5c-5.3-16.1-11.5-31.9-16.6-48c-3.2-10.2-4.4-20.7,2.2-30.7c-2.6,22.6,8.4,39.9,20.6,57
		c10.1,14.2,13.6,30.3,11.9,47.5c-0.6,6.1-2,12.1-3.3,19.4c47.9-29,65.8-75.2,78-125.1c4.9,51.8-14.6,93.9-51.2,129.4
		c7.8-3.7,14.8-7.9,21.5-12.4c56.4-38.4,77-92.8,68.6-158.8c-2.2-17.5-9.3-34.5-13.8-51.7c-2.3-8.8-4-17.7-5.9-26.4
		c10.9,16,20.5,32.1,32.1,46.7c18.2,22.9,22.9,48,15.1,75.5c-4.7,16.7-11.2,33-17.3,50.7c23.3-17,43.9-35,56.5-60.6
		C678.4,792,675.1,766,655.8,742.9z M534.7,696.5c7.1-2.7,14.2-5.3,21.1-7.9c0.2,7.3-8.6,12.9-30.5,20.8c5-0.8,10.2-1.3,15.1-2.6
		c5.3-1.4,10.4-3.6,15.8-5.5c-0.4,10.1-0.4,10.1-32.4,19.5c9.4-1.4,18.7-2.8,28.2-4.2c-4.2,12.9-4.2,12.9-23.3,13.2
		c4.8,1.4,9.6,2.8,14.7,4.3c-2.1,6.2-5.2,9.5-12,7c-9.1-3.4-18.5-5.9-27.3-10c-10.7-5-13.2-16.5-7.1-26.7c3.6-6,6.8-12.1,10.4-18.1
		c1-1.7,2.7-3,5.3-5.7c0.5,4.1,0.8,6.6,1.2,9.5c12.6-3.7,18.2-13.5,23.1-27.4c7.1,6.5,12.7,11.6,20,18.3
		c-8.8,5.5-15.8,9.8-22.7,14.1C534.4,695.7,534.6,696.1,534.7,696.5z"/>
</g>
<g>
	<path class="st2" d="M453.9,283.4c3.7-12.3,16.5-19.1,28.7-15.4c12.4,3.8,19.1,16.5,15.4,29c-3.7,12.1-16.7,18.9-28.9,15.1
		C457,308.4,450.2,295.6,453.9,283.4z"/>
	<path class="st2" d="M356.9,237c6.3,2.6,12.4,5.4,18.8,7.7c13,4.6,26.4,7.9,39.9,11c10.1,2.3,20.4,4.2,29.9,8.8
		c4.2,2,7.8,4.8,10.7,8.5c0.7,0.9,1,1.6,0.1,2.7c-1,1.1-1.6,2.6-2.5,4.1c-6.1-9.1-16-11.8-25.7-14.8c-12-3.6-24.1-6.6-35.9-10.9
		c-12.3-4.4-24.2-9.8-35.3-16.8c-0.1-0.1-0.1-0.3,0-0.3C356.9,237,356.9,237,356.9,237z"/>
	<path class="st2" d="M595.1,236.4c-14.7,9.5-30.6,16.2-47.2,21.6c-10.7,3.5-21.7,6.1-32.3,10.2c-6.7,2.6-13,5.8-17.1,12.5
		c-0.8-1.8-1.5-3.5-2.7-4.7c-0.8-0.8-0.3-1.4,0.2-2.1c2.5-3.7,5.9-6.3,9.8-8.5c6.9-3.8,14.5-5.8,22.1-7.7c17-4.2,34.1-8.1,50.4-14.6
		c5.5-2.2,10.8-4.6,16.2-7.1C594.7,236,594.9,236.1,595.1,236.4z"/>
	<path class="st2" d="M418.1,284.9c8.1-4.3,15.7-8.4,23.4-12.5c1-0.5,5.4,1.4,5.6,2.4c0.2,0.6-0.4,0.8-0.8,1
		c-5.9,3.1-11.8,6.3-17.8,9.3C426.1,286.3,422.2,286.1,418.1,284.9z"/>
	<path class="st2" d="M534.3,285.2c-4.4,0.9-8.3,1.5-12.3-0.6c-5.2-2.8-10.6-5.5-15.9-8.2c-1.1-0.6-1.4-0.9-0.3-1.8
		c2.8-2.3,3.7-2.4,6.8-0.8c6.7,3.5,13.4,6.9,20.2,10.4C533.3,284.4,533.6,284.7,534.3,285.2z"/>
	<path class="st2" d="M407.8,280.4c0.4-1,1.3-1.1,2-1.5c6-3.1,12-6.2,18.1-9.4c4.4-2.3,4.4-2.3,9.2,0.4c-6.9,3.6-13.5,7.6-20.6,10.4
		C413.7,281.5,410.7,280.8,407.8,280.4z"/>
	<path class="st2" d="M515,270.3c3-1.6,5.3-2.9,8.5-1.1c6.4,3.6,13.1,6.6,19.6,9.9c0.5,0.2,0.9,0.6,1.6,1.1
		c-4.2,0.9-7.9,1.1-11.6-0.8C527.2,276.4,521.3,273.4,515,270.3z"/>
	<path class="st2" d="M525.7,266.3c3.2-1.2,5.6-2.5,8.7-1c6.7,3.3,13.6,6.3,20.8,9.7c-3.6,1.3-6.8,1.8-10,0.4
		C538.8,272.5,532.5,269.5,525.7,266.3z"/>
	<path class="st2" d="M397,275.2c6.9-3.3,13.4-6.2,19.6-9.5c3.3-1.8,6.1-1.2,9.5,0.3c-3.2,1.6-6.1,3.1-9,4.6
		c-2.9,1.4-5.8,2.8-8.7,4.2C404.9,276.7,401.3,276.7,397,275.2z"/>
	<path class="st2" d="M538.1,262.7c2.9-1.1,5.2-2.1,8.2-0.6c5.5,2.8,11.3,5.1,17.5,7.8c-3,1.1-5.8,1.8-8.4,0.8
		C549.6,268.5,544,265.7,538.1,262.7z"/>
	<path class="st2" d="M413.9,262.7c-5.6,2.9-11,5.7-16.6,8c-2.8,1.2-5.6,0.7-8.9-0.5c5.1-2.4,9.9-4.6,14.6-6.7
		c0.6-0.3,1.2-0.4,1.8-0.8C407.6,260.7,410.6,261,413.9,262.7z"/>
	<path class="st2" d="M570.6,264.9c-2.8,1.5-5.4,1.9-8.2,0.7c-4.4-2-8.7-4-13.4-6.3c2.4-1.1,4.2-2.2,6.8-0.9
		C560.7,260.7,565.7,262.7,570.6,264.9z"/>
	<path class="st2" d="M402.9,259.4c-4.9,2.5-9.5,4.9-14.2,6.8c-2.5,1-4.9,0.4-7.7-0.6c5.1-2.3,9.8-4.3,14.3-6.7
		C397.9,257.5,400.2,257.8,402.9,259.4z"/>
	<path class="st2" d="M393,256.2c-4.3,2-8.5,3.9-13,5.3c-2,0.6-3.9-0.2-5.8-0.9c0.2-1,1.1-0.9,1.6-1.2c3.3-1.3,6.7-2.4,9.8-3.9
		C388.3,254.2,390.6,254.4,393,256.2z"/>
	<path class="st2" d="M577.8,259.9c-7.4,3.4-12.5-2.5-18.7-3.8c2.2-1.8,4.4-2.4,7-1.1c3,1.4,6.1,2.4,9.2,3.5
		C576.1,258.8,577.1,258.8,577.8,259.9z"/>
	<path class="st2" d="M384.8,252.9c-5.8,1.2-10.4,5.5-16.4,2.5c1.2-1.1,2.6-1.2,3.9-1.7c1.4-0.6,2.9-1,4.3-1.5
		C380.3,250.8,380.3,250.8,384.8,252.9z"/>
	<path class="st2" d="M583.9,254.5c-6.3,3.2-10.9-1-16-2.1c1.9-1.4,3.6-2.4,6-1.4C577,252.3,580.2,253.2,583.9,254.5z"/>
	<path class="st2" d="M364,250.8c6.3-2.9,9.3-3.2,13.1-1C372.7,250.6,368.8,253.7,364,250.8z"/>
	<path class="st2" d="M574.4,249.2c5-3.5,8.8,0.1,12.9,0.6C583,253.1,579.1,249.9,574.4,249.2z"/>
	<path class="st2" d="M591.5,245.3c-3.2,2.7-6,0.7-9.2,0.4C585.5,243,588.3,244.9,591.5,245.3z"/>
	<path class="st2" d="M360,246.1c3.3-0.3,6.1-2.5,9.2,0.2C366.2,247.1,363.4,248.6,360,246.1z"/>
	<path class="st2" d="M357.5,242.5c3.6-1.1,4-1.1,6.1,0.8C361.4,243.9,359.4,244.5,357.5,242.5z"/>
	<path class="st2" d="M594,241.7c-1.9,1.9-3.7,1.5-5.8,0.7C590,240.4,591.9,240.8,594,241.7z"/>
</g>
<g>
	<g>
		<path class="st0" d="M144.6,1029.6c-9.8-7.1-19.5-14.5-29-22.3c0.3-6.7,0.6-13.4,1.1-20c-5.2-4.5-10.3-9.1-15.4-13.8
			c-1.6-7.7-3-15.3-4.2-22.9c16-16,32-32,48-48c7,0.7,14,1.1,21,1.4c10.1,9.4,20.6,18.3,31.3,26.6c1.3,6.7,2.8,13.3,4.4,20
			c-13.2,18.5-26.4,36.9-39.7,55.4c-5.8,0.1-11.7,0.1-17.7,0C144.4,1013.8,144.4,1021.7,144.6,1029.6z M142.4,1025.8
			c-0.2-7.4-0.2-14.7-0.1-22.1c6.1,0.2,12.2,0.3,18.2,0.2c13.1-18,26.2-36.1,39.3-54.1c-1.5-6.2-2.9-12.3-4.2-18.5
			c-10.4-8-20.5-16.6-30.3-25.7c-6.4-0.3-12.8-0.7-19.3-1.2c-15.6,15.7-31.2,31.5-46.8,47.2c1.1,7,2.4,14,3.8,21.1
			c5.2,4.8,10.4,9.5,15.7,14c-0.4,6.7-0.7,13.4-0.9,20.1C126,1013.5,134.1,1019.8,142.4,1025.8z M139.9,1021.6
			c-6.6-4.9-13.1-9.9-19.5-15.2c0.2-6.7,0.5-13.4,0.9-20.1c-5.4-4.6-10.7-9.3-15.9-14.2c-1.3-6.4-2.5-12.7-3.6-19.1
			c15.1-15.4,30.3-30.9,45.4-46.3c5.9,0.5,11.8,0.9,17.6,1.1c9.4,8.7,19.1,16.9,29,24.6c1.1,5.6,2.3,11.2,3.7,16.8
			c-12.8,17.5-25.6,35.1-38.4,52.6c-6.3,0.1-12.6,0-18.9-0.2c0,0-0.1-0.1-0.1-0.1C139.8,1008.2,139.8,1014.8,139.9,1021.6z
			 M177.9,943.6c-0.4-1.7-0.7-3.4-1-5.1c-5.1-4.2-10.2-8.5-15.2-12.9c-1.7-0.1-3.5-0.1-5.2-0.2c-11.2,12.5-22.5,24.9-33.7,37.4
			c0.4,1.8,0.7,3.7,1.1,5.5c5.6,5,11.3,9.8,17.1,14.5c1.9,0.1,3.7,0.1,5.5,0.2C157,969.8,167.4,956.7,177.9,943.6z M174.9,939.4
			c0.2,1.1,0.4,2.1,0.6,3.2c-10.2,12.7-20.4,25.4-30.7,38.1c-1.2,0-2.3-0.1-3.5-0.1c-5.2-4.3-10.4-8.7-15.5-13.2
			c-0.2-1.1-0.5-2.3-0.7-3.4c10.8-12.2,21.7-24.3,32.5-36.5c1.1,0,2.2,0.1,3.3,0.1C165.6,931.7,170.2,935.6,174.9,939.4z
			 M173.5,941.9c-0.1-0.6-0.2-1.1-0.3-1.7c-4.3-3.5-8.5-7.1-12.6-10.7c-0.6,0-1.2,0-1.7-0.1c-10.5,11.8-20.9,23.7-31.4,35.5
			c0.1,0.6,0.3,1.2,0.4,1.8c4.6,4,9.3,8,14,11.9c0.6,0,1.2,0.1,1.8,0.1C153.6,966.5,163.5,954.2,173.5,941.9z"/>
		<path class="st0" d="M252.2,966.8c-3.6,6.6-7.3,13.1-10.9,19.7c-2-1.1-4-2.3-6-3.4c-8.1,14-16.1,28-24.2,42.1
			c0.3,0.6,0.6,1.2,0.8,1.8c5.1,2.9,10.2,5.7,15.4,8.5c0.6-0.1,1.3-0.2,1.9-0.2c7.5-14.3,15-28.7,22.5-43c-2-1.1-4.1-2.2-6.1-3.3
			c3.6-6.6,7.2-13.2,10.7-19.8c11.5,6.2,23.2,11.9,35,17c-3,6.9-6,13.8-8.9,20.7c-2.1-0.9-4.2-1.8-6.3-2.8
			c-8,17.9-16.1,35.7-24.1,53.6c-7.2,1.7-14.5,3.3-21.9,4.7c-14.4-7.1-28.6-14.9-42.4-23.3c-2.9-7-5.5-14.1-8.1-21.2
			c10.8-16.4,21.5-32.7,32.3-49.1c-2-1.3-3.9-2.6-5.8-3.9c4.2-6.2,8.4-12.4,12.7-18.6C229.6,953.5,240.8,960.4,252.2,966.8z
			 M208.6,964.5c1.9,1.3,3.9,2.6,5.8,3.9c-10.9,16.7-21.8,33.5-32.7,50.2c2.4,6.5,4.9,13,7.6,19.5c13.3,8.1,26.8,15.5,40.5,22.3
			c6.8-1.3,13.6-2.6,20.2-4.2c8.3-18.2,16.5-36.3,24.8-54.5c2.1,0.9,4.2,1.9,6.3,2.8c2.6-5.8,5.1-11.7,7.7-17.5
			c-10.7-4.7-21.3-9.8-31.7-15.4c-3,5.6-6,11.2-9,16.8c2,1.1,4.1,2.2,6.1,3.2c-7.8,15.1-15.6,30.2-23.4,45.3
			c-1.2,0.2-2.4,0.4-3.6,0.6c-5.8-3-11.5-6.2-17.2-9.4c-0.5-1.1-0.9-2.2-1.4-3.4c8.5-14.7,17.1-29.4,25.6-44.1c2,1.2,4,2.3,6,3.4
			c3.1-5.6,6.2-11.1,9.3-16.7c-10.3-5.8-20.4-12-30.4-18.7C215.7,953.9,212.2,959.2,208.6,964.5z M286,987.8
			c-2.1,4.7-4.1,9.3-6.2,14c-2.1-0.9-4.1-1.9-6.2-2.8c-8.5,18.4-17,36.8-25.5,55.3c-6.1,1.4-12.2,2.6-18.4,3.7
			c-13-6.5-25.8-13.5-38.4-21.1c-2.4-5.9-4.7-11.8-6.9-17.7c11-17.1,22-34.1,32.9-51.2c-1.9-1.3-3.9-2.5-5.8-3.8
			c2.8-4.2,5.6-8.5,8.5-12.7c8.8,5.9,17.7,11.4,26.8,16.5c-2.5,4.4-5,8.9-7.5,13.3c-2-1.1-4-2.3-6-3.5c-9,15.4-18.1,30.8-27.1,46.2
			c0.6,1.7,1.3,3.3,1.9,5c6.3,3.6,12.6,7.1,19.1,10.5c1.8-0.3,3.6-0.6,5.4-1c8.1-15.9,16.3-31.8,24.4-47.7c-2-1-4-2.1-6-3.1
			c2.4-4.5,4.8-9,7.1-13.5C267.3,979.1,276.6,983.6,286,987.8z"/>
		<path class="st0" d="M334.5,1001.9c-2.3,7.2-4.5,14.4-6.8,21.6c-2.1-0.7-4.2-1.3-6.4-2c-5.2,15.7-10.3,31.4-15.5,47.2
			c2.3,0.8,4.7,1.5,7,2.3c-2.3,7.2-4.5,14.4-6.8,21.6c-14.9-4.6-29.6-10-44.1-15.9c2.9-7,5.8-14,8.6-21c2.3,1,4.7,1.9,7,2.8
			c6.1-15.4,12.2-30.8,18.2-46.2c-2.1-0.8-4.2-1.7-6.4-2.6c2.9-7,5.8-14,8.6-21C310.1,993.7,322.2,998.1,334.5,1001.9z
			 M292.1,1008.9c2.1,0.9,4.2,1.7,6.3,2.5c-6.4,16.5-12.9,33-19.3,49.5c-2.4-0.9-4.7-1.9-7.1-2.8c-2.4,5.9-4.8,11.9-7.2,17.8
			c13.1,5.3,26.3,10.1,39.6,14.3c1.9-6.1,3.9-12.2,5.8-18.3c-2.4-0.8-4.8-1.5-7.2-2.3c5.6-16.8,11.2-33.6,16.8-50.4
			c2.1,0.7,4.3,1.4,6.5,2.1c1.9-6.1,3.9-12.1,5.8-18.2c-11.1-3.5-22-7.5-32.8-12C296.9,997.1,294.5,1003,292.1,1008.9z
			 M318.5,1016.7c2.1,0.7,4.3,1.4,6.4,2.1c1.6-4.8,3.1-9.7,4.7-14.5c-9.8-3.1-19.4-6.6-29-10.5c-1.9,4.7-3.8,9.4-5.7,14.2
			c2.1,0.8,4.2,1.7,6.3,2.5c-6.8,17.7-13.6,35.5-20.5,53.2c-2.4-0.9-4.7-1.8-7.1-2.8c-1.9,4.7-3.8,9.5-5.7,14.2
			c11.5,4.6,23,8.8,34.7,12.5c1.6-4.8,3.1-9.7,4.7-14.5c-2.4-0.8-4.8-1.6-7.2-2.4C306.3,1052.7,312.4,1034.7,318.5,1016.7z"/>
		<path class="st0" d="M414.8,1032.6c-2.6,22.5-5.1,45-7.7,67.4c-6.3,3.8-12.7,7.6-19.3,11.2c-23.4-3.4-46.5-8.4-69.4-14.9
			c2.1-7.3,4.2-14.5,6.2-21.8c2.4,0.7,4.8,1.4,7.3,2c4.3-16,8.7-31.9,13-47.9c-2.2-0.6-4.4-1.2-6.5-1.8c2.1-7.3,4.2-14.5,6.2-21.8
			c18.8,5.4,37.9,9.5,57.1,12.3C406,1022.4,410.3,1027.6,414.8,1032.6z M346,1007.1c-1.7,6.2-3.5,12.3-5.2,18.5
			c2.2,0.6,4.4,1.2,6.5,1.8c-4.6,17.1-9.1,34.2-13.7,51.3c-2.4-0.6-4.9-1.3-7.3-2c-1.7,6.2-3.5,12.3-5.2,18.5
			c21.7,6.1,43.8,10.8,66,14.1c6-3.3,11.9-6.8,17.7-10.3c2.6-22,5.2-44,7.8-66c-4.1-4.7-8.1-9.4-12-14.1
			C382.3,1016.1,364,1012.2,346,1007.1z M410.5,1033.6c-2.6,21.5-5.3,42.9-7.9,64.4c-5.3,3.2-10.7,6.2-16.1,9.2
			c-21-3.2-41.8-7.6-62.3-13.2c1.4-4.9,2.7-9.8,4.1-14.7c2.4,0.7,4.9,1.3,7.3,2c4.8-18.4,9.6-36.8,14.4-55.2
			c-2.2-0.6-4.3-1.1-6.5-1.7c1.4-4.9,2.7-9.8,4.1-14.7c17.1,4.7,34.5,8.4,52,11.1C403.1,1025,406.8,1029.3,410.5,1033.6z
			 M391.5,1038.2c-1.1-1.3-2.1-2.6-3.2-3.9c-6.9-1.2-13.8-2.5-20.6-4c-4.1,18.6-8.1,37.1-12.2,55.7c7.7,1.7,15.4,3.2,23.2,4.5
			c1.6-0.9,3.2-1.7,4.7-2.6C386.1,1071.4,388.8,1054.8,391.5,1038.2z M369.4,1032.7c5.9,1.3,11.8,2.4,17.7,3.4
			c0.7,0.8,1.4,1.7,2.1,2.5c-2.7,16.1-5.4,32.1-8.1,48.2c-1,0.5-2.1,1.1-3.1,1.6c-6.6-1.1-13.2-2.4-19.7-3.8
			C362,1067.3,365.7,1050,369.4,1032.7z M360.9,1083.4c5.5,1.1,11,2.2,16.6,3.2c0.5-0.3,1-0.6,1.6-0.9c2.7-15.6,5.4-31.2,8.1-46.7
			c-0.4-0.4-0.8-0.9-1.2-1.3c-5-0.9-9.9-1.8-14.8-2.8C367.7,1051,364.3,1067.2,360.9,1083.4z"/>
		<path class="st0" d="M500.7,1034.2c1.7,22.6,3.4,45.1,5.2,67.7c-5.5,4.9-11.1,9.8-16.8,14.6c-23.6,1-47.2,0.5-70.7-1.6
			c0.7-7.5,1.3-15,2-22.6c2.5,0.2,5,0.4,7.5,0.6c1.2-16.5,2.5-33,3.7-49.5c-2.2-0.2-4.5-0.4-6.7-0.5c0.7-7.5,1.3-15,2-22.6
			c19.3,1.7,38.7,2.2,58.1,1.3C490.1,1025.9,495.3,1030.1,500.7,1034.2z M428.6,1022.1c-0.5,6.4-1.1,12.8-1.6,19.1
			c2.2,0.2,4.5,0.4,6.7,0.5c-1.2,17.6-2.5,35.3-3.7,52.9c-2.5-0.2-5-0.4-7.5-0.6c-0.5,6.4-1.1,12.8-1.6,19.1
			c22.3,1.9,44.8,2.4,67.2,1.5c5.3-4.4,10.4-8.9,15.4-13.4c-1.6-22.1-3.2-44.2-4.8-66.3c-4.9-3.8-9.7-7.7-14.4-11.6
			C465.7,1024.1,447.1,1023.7,428.6,1022.1z M496.7,1036c1.5,21.6,2.9,43.2,4.4,64.8c-4.6,4.1-9.3,8.1-14.1,12.1
			c-21.1,0.8-42.3,0.4-63.4-1.3c0.4-5.1,0.8-10.1,1.2-15.2c2.5,0.2,5,0.4,7.5,0.5c1.2-19,2.5-37.9,3.7-56.9
			c-2.2-0.1-4.5-0.3-6.7-0.5c0.4-5.1,0.8-10.1,1.2-15.2c17.6,1.4,35.3,1.8,53,1.1C487.8,1028.9,492.2,1032.5,496.7,1036z
			 M478.9,1044.1c-1.3-1.1-2.6-2.2-3.9-3.2c-7,0.1-13.9,0.1-20.9-0.1c-0.5,19-1,38-1.5,57c7.8,0.2,15.7,0.2,23.5,0.1
			c1.4-1.1,2.8-2.3,4.1-3.4C479.9,1077.7,479.4,1060.9,478.9,1044.1z M456.2,1042.8c6,0.1,12,0.1,17.9,0c0.9,0.7,1.7,1.4,2.6,2
			c0.4,16.3,0.7,32.6,1.1,48.9c-0.9,0.7-1.8,1.4-2.8,2.1c-6.7,0.1-13.3,0.1-20,0C455.5,1078.2,455.8,1060.5,456.2,1042.8z
			 M457.4,1094.2c5.6,0.1,11.2,0.1,16.8,0c0.5-0.4,0.9-0.8,1.4-1.1c-0.3-15.8-0.6-31.6-0.9-47.4c-0.5-0.4-1-0.7-1.4-1.1
			c-5,0.1-10,0.1-15,0C458,1061.1,457.7,1077.6,457.4,1094.2z"/>
		<path class="st0" d="M548,1014.3c1.4,7.4,2.8,14.8,4.2,22.3c-2.2,0.4-4.3,0.8-6.5,1.2c2.8,16.3,5.7,32.6,8.5,48.9
			c2.4-0.4,4.8-0.9,7.2-1.3c1.4,7.4,2.8,14.8,4.2,22.3c-15.2,2.9-30.6,5.1-45.9,6.6c-0.8-7.5-1.5-15-2.3-22.5c2.5-0.2,5-0.5,7.4-0.8
			c-1.9-16.4-3.8-32.9-5.7-49.3c-2.2,0.3-4.5,0.5-6.7,0.7c-0.8-7.5-1.5-15-2.3-22.5C522.9,1018.5,535.5,1016.7,548,1014.3z
			 M514.3,1040.4c2.2-0.2,4.5-0.5,6.7-0.7c2.1,17.6,4.2,35.1,6.3,52.7c-2.5,0.3-5,0.6-7.5,0.8c0.7,6.4,1.3,12.7,2,19.1
			c13.8-1.4,27.6-3.4,41.3-5.9c-1.2-6.3-2.3-12.6-3.5-18.9c-2.5,0.5-4.9,0.9-7.4,1.3c-3-17.4-5.9-34.9-8.9-52.3
			c2.2-0.4,4.4-0.8,6.6-1.2c-1.2-6.3-2.3-12.5-3.5-18.8c-11.4,2-22.8,3.6-34.2,4.8C512.9,1027.7,513.6,1034,514.3,1040.4z
			 M540.9,1034.8c2.2-0.4,4.4-0.7,6.6-1.1c-0.9-5-1.8-10-2.7-15c-10,1.8-20.1,3.2-30.2,4.3c0.6,5.1,1.1,10.1,1.7,15.2
			c2.2-0.2,4.4-0.5,6.7-0.8c2.3,18.9,4.7,37.7,7,56.6c-2.5,0.3-5,0.6-7.5,0.9c0.6,5.1,1.1,10.1,1.7,15.2c12.1-1.3,24.2-3.1,36.2-5.2
			c-0.9-5-1.8-10-2.7-15c-2.5,0.4-5,0.9-7.4,1.3C547.1,1072.4,544,1053.6,540.9,1034.8z"/>
		<path class="st0" d="M633,989.3c3.6,8.8,7.2,17.6,10.8,26.5c-8.2,3.3-16.4,6.4-24.7,9.3c-0.6-1.9-1.3-3.7-1.9-5.6
			c-0.5,0.2-1,0.3-1.5,0.5c5.3,15.7,10.7,31.3,16,47c2.4-0.8,4.8-1.6,7.1-2.5c2.5,7.1,5.1,14.2,7.6,21.3
			c-14.8,5.3-29.7,9.9-44.8,13.8c-1.9-7.3-3.8-14.6-5.7-21.9c2.4-0.6,4.8-1.3,7.3-1.9c-4.4-15.9-8.8-31.9-13.3-47.8
			c-0.5,0.1-1,0.3-1.5,0.4c0.5,1.9,1,3.8,1.6,5.7c-8.5,2.3-17,4.3-25.6,6.1c-2-9.3-4-18.5-6-27.8
			C583.8,1006.9,608.7,999.2,633,989.3z M566,1038c7.2-1.6,14.4-3.3,21.5-5.2c-0.5-1.9-1-3.8-1.5-5.7c1.8-0.4,3.7-0.9,5.5-1.4
			c4.8,17,9.6,34.1,14.4,51.1c-2.4,0.7-4.9,1.3-7.3,2c1.6,6.2,3.3,12.4,4.9,18.6c13.6-3.6,27-7.7,40.3-12.4
			c-2.1-6-4.3-12.1-6.4-18.1c-2.4,0.8-4.8,1.7-7.2,2.5c-5.6-16.8-11.3-33.5-16.9-50.3c1.7-0.6,3.5-1.2,5.2-1.8
			c0.7,1.9,1.3,3.7,2,5.6c7-2.4,14-5.1,20.9-7.8c-3.1-7.8-6.3-15.5-9.4-23.3c-23.2,9.4-47,16.7-71.2,21.9
			C562.4,1021.7,564.2,1029.8,566,1038z M638.4,1013.9c-5.5,2.2-11,4.3-16.6,6.2c-0.7-1.9-1.3-3.7-2-5.6c-3.1,1.1-6.2,2.2-9.3,3.2
			c6,18,11.9,36.1,17.9,54.1c2.4-0.8,4.8-1.6,7.2-2.4c1.7,4.8,3.3,9.6,5,14.4c-11.6,4-23.3,7.6-35.2,10.8c-1.3-4.9-2.7-9.8-4-14.7
			c2.4-0.7,4.9-1.3,7.3-2c-5.2-18.3-10.5-36.5-15.7-54.8c-3.2,0.9-6.4,1.8-9.6,2.6c0.5,1.9,1,3.8,1.5,5.7
			c-5.7,1.5-11.4,2.9-17.1,4.2c-1.5-6.9-3.1-13.8-4.6-20.7c22.9-5.1,45.4-12,67.4-20.8C633.2,1000.8,635.8,1007.4,638.4,1013.9z"/>
		<path class="st0" d="M708.7,965.4c4.3,6.8,8.6,13.5,12.8,20.3c-8,5.1-16.1,9.9-24.3,14.4c-2.2-4-4.4-8-6.6-12
			c-0.6-0.1-1.2-0.3-1.9-0.4c-4.6,2.5-9.3,5-14,7.4c-0.3,0.5-0.5,1.1-0.8,1.6c7.1,14.1,14.1,28.3,21.2,42.4c0.6,0.1,1.3,0.2,1.9,0.3
			c5.2-2.6,10.4-5.4,15.5-8.2c0.3-0.6,0.6-1.2,0.9-1.7c-2.4-4.4-4.8-8.7-7.2-13.1c8.5-4.7,17-9.7,25.3-15
			c4.5,7.1,8.9,14.2,13.4,21.2c-2.6,7-5.4,14-8.4,21c-13.9,8.2-28.1,15.6-42.6,22.4c-7.4-1.5-14.7-3.1-21.9-4.9
			c-8.9-20.8-17.9-41.7-26.8-62.5c3-6.1,5.8-12.3,8.4-18.5c11.9-5.6,23.6-11.7,35.1-18.5C695.2,963.3,701.9,964.4,708.7,965.4z
			 M654.9,981.6c-2.4,5.7-4.9,11.4-7.6,17.1c8.8,20.3,17.7,40.7,26.5,61c6.6,1.6,13.3,3.2,20.1,4.5c13.9-6.5,27.5-13.7,40.9-21.5
			c2.7-6.5,5.3-12.9,7.8-19.4c-4-6.4-8-12.7-12-19.1c-7.1,4.5-14.3,8.7-21.6,12.8c2.2,4,4.5,8,6.7,12.1c-0.5,1.1-1,2.2-1.4,3.3
			c-5.7,3.1-11.5,6.2-17.3,9.1c-1.2-0.2-2.4-0.5-3.6-0.7c-7.2-14.6-14.4-29.1-21.6-43.7c0.4-1,0.9-2.1,1.3-3.1
			c5.2-2.6,10.4-5.3,15.5-8.2c1.1,0.2,2.2,0.5,3.3,0.7c2.1,3.7,4.1,7.4,6.2,11.1c7-3.9,13.9-8,20.7-12.2
			c-3.8-6.1-7.6-12.2-11.4-18.3c-6.3-1-12.5-2.1-18.6-3.3C677.7,970.3,666.4,976.2,654.9,981.6z M699.3,994.8
			c-1.9-3.4-3.8-6.7-5.7-10.1c-1.7-0.3-3.3-0.7-5-1c-5.7,3.1-11.4,6.2-17.2,9.1c-0.6,1.5-1.2,3.1-1.9,4.6
			c7.4,15.1,14.8,30.2,22.1,45.3c1.8,0.4,3.6,0.7,5.3,1.1c6.5-3.2,12.9-6.6,19.2-10.1c0.7-1.7,1.5-3.3,2.2-5
			c-2.1-3.7-4.2-7.4-6.2-11.1c5.9-3.3,11.7-6.8,17.5-10.4c3.5,5.7,7,11.3,10.5,17c-2.3,5.9-4.8,11.8-7.3,17.6
			c-12.7,7.3-25.6,14.1-38.7,20.3c-6.2-1.2-12.3-2.6-18.3-4.1c-8.7-19.8-17.4-39.6-26.1-59.4c2.4-5.2,4.7-10.4,6.9-15.6
			c10.9-5.2,21.7-10.9,32.3-17c5.6,1.1,11.3,2.1,17.1,3c3.3,5.3,6.6,10.7,9.9,16C710.4,988.3,704.8,991.6,699.3,994.8z"/>
		<path class="st0" d="M742.7,924.3c4.7,5.9,9.5,11.8,14.2,17.6c-1.8,1.5-3.6,2.9-5.4,4.3c2.6,3.3,5.2,6.6,7.7,9.9
			c5.5-4.3,10.9-8.8,16.3-13.4c-2.7-3.2-5.4-6.4-8.2-9.5c-1.8,1.5-3.6,3-5.3,4.5c-4.8-5.8-9.7-11.6-14.5-17.4
			c10.3-8.6,20.3-17.7,30-27.3c5.4,5.3,10.7,10.6,16.1,15.9c-1.7,1.7-3.4,3.4-5.2,5.1c11.5,11.9,23,23.8,34.5,35.6
			c1.9-1.8,3.8-3.7,5.6-5.5c5.4,5.3,10.8,10.6,16.1,15.9c-11.8,11.8-24.1,23-36.7,33.5c-4.8-5.8-9.6-11.6-14.5-17.4
			c2-1.7,4-3.4,6-5.1c-3.1-3.6-6.2-7.3-9.4-10.9c-5.6,4.8-11.3,9.5-17.1,14c3,3.8,5.9,7.6,8.9,11.4c2-1.6,4-3.2,6-4.8
			c4.7,5.9,9.5,11.8,14.2,17.6c-12.7,10.2-25.7,19.8-39,28.8c-4.2-6.3-8.4-12.6-12.6-18.9c2.2-1.4,4.3-2.9,6.4-4.4
			c-9.4-13.6-18.8-27.2-28.2-40.9c-1.9,1.3-3.9,2.6-5.8,3.9c-4.2-6.3-8.4-12.6-12.6-18.9C721.6,940.7,732.3,932.8,742.7,924.3z
			 M713.2,948.3c3.6,5.3,7.2,10.6,10.7,15.9c1.9-1.3,3.9-2.6,5.8-4c10.1,14.5,20.2,29.1,30.3,43.6c-2.1,1.5-4.3,3-6.4,4.4
			c3.6,5.3,7.2,10.6,10.7,15.9c12-8.1,23.7-16.7,35.1-25.8c-4-5-8-10-12-15c-2.1,1.6-4.1,3.3-6.2,4.9c-3.6-4.7-7.3-9.4-10.9-14.1
			c7-5.4,13.8-11,20.6-16.9c3.9,4.5,7.8,9,11.7,13.5c-2,1.7-4,3.5-6.1,5.2c4.1,4.9,8.2,9.8,12.3,14.7c11.3-9.5,22.2-19.4,32.8-30
			c-4-4.1-8.1-8.2-12.1-12.3c-0.5-0.5-0.9-0.9-1.4-1.4c-1.9,1.9-3.8,3.8-5.8,5.6c-12.3-12.8-24.5-25.5-36.8-38.3
			c1.7-1.7,3.5-3.4,5.2-5.1c-4.5-4.6-9-9.1-13.5-13.7c-8.7,8.7-17.7,16.9-27,24.6c4.1,4.9,8.2,9.8,12.3,14.7
			c1.7-1.5,3.5-2.9,5.2-4.4c3.5,4,7,8.1,10.5,12.1c-6.5,5.6-13.1,11-19.8,16.2c-3.3-4.2-6.5-8.4-9.8-12.7c1.9-1.4,3.7-2.9,5.6-4.4
			c-4-5-8-10-12-15C732.8,934.5,723.1,941.7,713.2,948.3z M782.6,914.5c13.1,13.8,26.2,27.6,39.3,41.3c1.9-1.9,3.9-3.7,5.8-5.6
			c3.6,3.6,7.1,7.3,10.7,10.9c-9.3,9.2-18.9,17.9-28.8,26.3c-3.3-3.9-6.6-7.8-9.9-11.7c2-1.7,4-3.5,6.1-5.2
			c-4.8-5.5-9.6-10.9-14.3-16.4c-7.9,6.9-16,13.6-24.3,19.9c4.4,5.8,8.8,11.5,13.3,17.3c2.1-1.6,4.2-3.2,6.2-4.9c3.2,4,6.3,8,9.5,12
			c-10,8-20.3,15.5-30.8,22.7c-2.9-4.2-5.7-8.4-8.6-12.6c2.2-1.5,4.3-3,6.4-4.5c-10.9-15.5-21.9-31.1-32.8-46.6
			c-1.9,1.3-3.8,2.7-5.7,4c-2.9-4.2-5.7-8.4-8.6-12.6c8.7-6,17.3-12.3,25.7-18.9c3.2,4,6.3,8,9.5,12c-1.8,1.5-3.7,2.9-5.6,4.3
			c4,5.3,8.1,10.6,12.1,15.8c8-6.2,15.9-12.6,23.5-19.3c-4.4-5-8.7-10-13.1-15c-1.7,1.5-3.5,3-5.3,4.5c-3.3-3.9-6.6-7.8-9.9-11.7
			c8.2-6.9,16.2-14.2,23.9-21.8c3.6,3.6,7.1,7.3,10.7,10.9C786.1,911.2,784.4,912.9,782.6,914.5z"/>
	</g>
</g>
</svg>
