<?xml version="1.0" encoding="utf-8"?>
<!-- Generator: Adobe Illustrator 22.0.1, SVG Export Plug-In . SVG Version: 6.00 Build 0)  -->
<svg version="1.1" id="Calque_1" xmlns="http://www.w3.org/2000/svg" xmlns:xlink="http://www.w3.org/1999/xlink" x="0px" y="0px"
	 viewBox="0 0 612 792" style="enable-background:new 0 0 612 792;" xml:space="preserve">
<g>
	<path d="M135.2,599.3C108,578,95,549.5,94.6,513.9c-13.7,10.3-27.9,14.6-45.8,12.6C67,515.1,73.6,498,77.4,480.3
		c8.4-39.1,31-64.5,68.3-78.9c16.7-6.4,32-16.6,49.1-25.7c-0.6,7.2,0,16-2.1,24.1c-5.3,21-18.6,37.1-33.4,52.6
		c-16.2,17.1-32.9,34.3-39.4,58c-7.3,27-0.5,52.3,9.9,77.1C131.5,591.4,133.4,595.3,135.2,599.3z"/>
	<path d="M229.4,251.7c-3,34.9-26.5,57.9-63,64.8c-12.6,2.4-25.4,4-38.2,5.9c-21.1,3.1-38.8,13.7-56.5,24.7
		c-8.3,5.2-17.4,9-26.1,13.5c-0.3-0.7-0.7-1.5-1-2.2c16.4-17.6,32.8-35.2,49.1-52.7c-13.7,3.1-22.5,13.8-32,24.5
		c5.9-29.9,32.5-48,64.9-45c13.1,1.2,26.4,2.6,39.5,2.2c23.2-0.7,42.2-11.2,57.7-28.2C225.9,256.8,227.5,254.2,229.4,251.7z"/>
	<path d="M210.4,425.3c-4.1,11.1-8,22.2-12.3,33.1c-6.4,16.3-14.6,32.1-19.2,48.9c-6.3,22.5,0.4,44.2,9.5,65
		c1.9,4.3,4.2,8.4,6.3,12.7c-0.7,0.5-1.4,1-2.1,1.5c-7.3-10-15.9-19.4-21.5-30.2c-5.8-11.2-8.7-23.9-12.8-35.6
		c-4.8,14.8-2.9,29.7,4.2,44c6.6,13.2,14.5,25.8,20.3,39.3c7,16.5,12.4,33.8,18.8,51.8c-15.9-25.1-31-48.7-45.9-72.5
		c-5.3-8.5-10.6-17.1-14.9-26.2c-12.9-26.7-8.4-51.4,10.3-73.6c6.5-7.7,13.8-14.7,20.9-21.9c12.1-12.2,24.4-24.2,36.7-36.3
		C209.2,425.3,209.8,425.3,210.4,425.3z"/>
	<path d="M197,322.3c-5.6,14.1-15.7,23.7-31,27.2c-34.3,7.9-59.7,26.5-74.6,59.2c-5.8,12.8-13.1,25.1-21,36.8
		c-8,11.8-19.2,19.5-36.3,19.1c14.4-12.2,16.9-28.4,21.1-43.7c1-3.6,1.8-7.3,2.4-11c7.5-41.7,33.3-64.4,74.1-72.3
		C153.5,333.3,175,327.5,197,322.3z"/>
	<path d="M109.7,272.5c6.6-2.9,13.2-5.8,19.8-8.8c-11.6-37.8-8.1-59.7,11.8-72.9c17.1-11.3,43.2-8.8,62.2,6.4
		c-20.6-3.4-41.2-5-52.6,15.3c-13.5,24-0.6,44.5,13.5,63.1c-18.1,0-35.9,0-53.7,0C110.4,274.7,110.1,273.6,109.7,272.5z"/>
	<path d="M191.9,262.9c3-26.9-2.2-32.6-31.2-36c8.1-10.2,14.2-11.1,44.4-6.2c-1.5-2.2-2.7-3.7-5.6-7.8c8.2,2.3,14.6,3.2,20.1,5.9
		c7.5,3.6,8.7,11.4,3.6,19.4C215.9,249.8,205.1,257.1,191.9,262.9z"/>
	<path d="M444.4,262.8c-14.1-5.5-23.9-13-31.1-23.5c-7.4-10.8-4.2-19,8.5-22.9c4.1-1.3,8.5-1.7,13.6-2.6c-1.4,2.6-2.2,4.1-3.5,6.4
		c15.4-1.9,30.6-6.8,45,7.2C451.9,226.5,438.3,235.8,444.4,262.8z"/>
	<path d="M405.1,305.3c-3.3,12.5-12.6,18.7-25.4,20.8c-9.2,1.5-16.9,5-18.4,16.6c-9.2-23.2,0-37.4,23.1-37.4
		C391.2,305.3,397.9,305.3,405.1,305.3z"/>
	<path d="M272.9,340.6c-4.5-9.9-12.2-13-21.4-14.6c-12.6-2.2-21.7-8.7-24.5-20.7c7.8,0,15.5,0,23.2,0c16.8,0.1,23.4,6.7,23.2,23.4
		C273.4,332.7,273,336.7,272.9,340.6z"/>
	<path d="M234.7,415.3c-8.4-12.8-16.2-24.8-24.1-36.8c-10.6-15.9-7.2-31.4,1.8-48c-0.7,14-7.9,29,10.7,37.2c0,3.1-0.6,7.5,0.2,11.7
		c0.7,4.1,1.6,9.2,4.3,11.8C234.6,397.9,236.3,405.5,234.7,415.3z"/>
	<path d="M482.8,358.4c16.7,9.4,34,18.1,49.3,29.4c24.1,17.9,36.6,43.7,43.4,72.7c7.3-40.1-2.5-76-26.8-110.8
		c10.2,3.6,18.2,6.5,26.6,9.5c-1.9-20.9-7.1-40.7-19.1-58.3c-13.8-20.3-34.1-31.1-56.1-37.4c1.6-6.8,3.2-12.8,4.4-18.9
		c3.2-16.4,0.3-34.9,17.2-46.1c-5.5-2.6-10.2-4.8-15-7c3.3-3.8,6.1-7,10.2-11.7c-14,0-26,0-39.6,0c4.5-4.1,7.6-7,10.7-9.8
		c-0.3-0.9-0.7-1.9-1-2.8c-20.2,4.7-40.3,9.3-60.5,14c-0.6-0.4-1.1-0.9-1.7-1.3c8.4-8.5,16.7-17.1,27.1-27.6
		c-14.3,1.5-26.7,2.8-37.6,4c1.2-11.2,2.4-23,3.5-33.2C399,133.2,381,143.2,361.3,154c4.1-10.3,7.7-19,11.8-29.2
		c-7.6,4.1-13.7,7.5-20.7,11.3c2.7-22.8,1.2-43.7-10.9-64c-6.5,13.4-18.3,18.9-30,24.1c-23.9,10.5-41.9,26.1-46.6,54.3
		c-15.1-15-32-23.4-52.8-25.2c3.4,10.1,4.9,19.9,9.8,27.7c4.8,7.7,12.9,13.2,19.6,19.7c-0.5,0.6-1.1,1.2-1.6,1.8
		c-15.5-12-31.2-23.4-53.8-20c6.3,4.8,11.6,8.8,16,12.2c-12.3,1.1-24.8,2.2-37.3,3.3c1,2.9,1.7,3.5,2.6,3.7
		c46,11.5,79.9,38.6,102.6,80c0.9,1.7,2.7,3.5,4.4,4.2c14.3,5.8,28.8,11.5,44.8,17.8c12.9-11.7,30.8-19.5,50.5-23.8
		c2.9-0.6,5.2-4.6,7.3-7.3c9.3-11.8,17.1-25.1,27.8-35.2c14.1-13.3,31.9-18.6,51.6-13.7c18.8,4.7,30.8,17.1,33.2,34.4
		c2.4,17.6-6.4,38-20,44.9c-17.7,9.1-32.8,1.5-45.9-9.6c-9.7-8.3-17.4-18.8-25.7-27.9c-7.8,13.5-7.8,26.4,1.1,40.3
		c3.2,5,7.2,9.6,10.8,14.3c6.8,9,13.2,18.1,14.2,30.2c-4.2-1.2-7.7-2.2-11.1-3.1c1.9,6.8,5.1,13.2,5.4,19.7
		c1.2,27,14.7,46.9,34.6,63.4c10.9,9.1,22.3,17.6,33,26.9c23.9,20.8,41,45.2,41.5,78.4c0.4,23.6-7.1,45.2-17.5,65.9
		c-1.5,3-2.8,6.1-4.1,9.2c21.5-19.2,36.3-42.2,43.7-69.6c11.9-43.8-1.3-75.4-40.8-98c-10.1-5.8-20.3-11.4-30.7-16.7
		c-30.9-15.9-45.9-40.1-39.5-78.6C448.5,341,466.1,349,482.8,358.4z M309.6,253.7c-23.9-23.8-39.2-51.5-36.8-86.4
		c2-29.4,20.2-47.1,45.4-59.6c-39.3,46.5-34.3,95.1-7.5,144.6C310.2,252.9,309.9,253.3,309.6,253.7z M319.6,197
		c-17-18.1-14.5-40.5,7.6-60.9C324.8,155.8,322.1,177,319.6,197z M378.2,179.1c-12.6,10-25.8,19.2-29.3,38.3
		c-4.4-21.7,1.8-29.8,42.2-58.6c0.9,0.7,1.9,1.3,2.8,2C388.7,166.9,384.4,174.2,378.2,179.1z M431.1,282.2
		c20.3,12.1,40.9,9.8,60.8,11.9c8.7,0.9,17.6,1.7,25.9,4.1c15.5,4.5,26.6,14.5,33.8,31.7c-24.3-14.4-50-12.2-74.7-15.1
		C456.6,312.5,441.2,303.2,431.1,282.2z"/>
	<path d="M485.9,481.5c-9.8-11.8-21.6-22.1-33.2-32.3c-21.5-18.9-35.1-42-38.6-70.7c-6.8,3.6-0.2,18.2-12.6,15.9
		c-1.9,7.1-3.7,14-6,22.6c-12.1-15.3-32.7-20.6-30.5-43c-3.6,13.8,0.2,28.5-11,38.3c-6.7-1.1-13.2-2.4-19-0.8
		c-13.1,3.4-25.7,4.2-38.9,0.3c-5.4-1.6-11.6-0.3-19.6-0.3c-2.1-3.5-5.2-8.8-8.5-14.5c0.4,16.3,10.1,31.2,19.9,30.9
		c0.4-2.2,0.8-4.5,1.8-9.5c3,4.6,4.9,7.1,6.4,9.8c1.9,3.4,2.8,7.5,5.3,10.3c11,12.3,9.1,25.8-5.5,32.7c-7.9,3.7-16.6,5.7-24.9,8.5
		c-6.5,2.2-10.3,0-11.6-7c4.9-1.5,9.8-3,14.6-4.5c-19.4,0.3-20.8-0.5-22.5-12.6c8.8,1.2,17.7,2.4,26.6,3.6
		c-28.4-7.2-31.9-9.2-30.7-19.2c5.9,2.1,11.6,4.6,17.6,6.1c6,1.5,12.3,2.1,18.4,3c-37.4-15.6-37.4-15.6-37.3-22.3
		c5.2,2,10.4,4.1,17.5,6.9c-8.2-7.7-14.7-13.7-22.7-21.2c-5.4,11.6-10.8,22.8-15.8,34.1c-6.5,14.9-13.5,29.7-18.8,45
		c-5.3,15.4-4.4,28.6-0.1,36.3c2.5-15.6,5-31.3,15.6-44.5c-16.7,47.8-13.8,93.4,14.5,136.3c-0.8-2.7-1.6-5.3-2.3-8
		c-9-35.9-6-69.9,15.5-101.1c23-33.2,73-44.6,108.1-24.6c14.8,8.4,16.7,21,5.1,32.7c-3.5-2.9-7-5.7-9.9-8.1
		c-2.6,8.3-4.9,15.9-7.7,24.8c-3.3-6.3-5.6-10.8-7.8-15.1c-7.2,9.7-13.8,18.7-21.5,29.1c-7.8-10.9-14.3-20-21.1-29.6
		c-2.4,4.6-4.8,9.3-8.3,16c-2.8-9.8-4.9-17.5-7.3-25.8c-3.4,3-7.1,6.3-11.3,10c-1.8-4.6-3.5-8.9-5.5-14
		c-18.9,23.7-27.4,49.6-17.9,78.1c7.8,23.4,19,45.7,29.1,68.3c9.7,21.6,17.9,43.1,7.8,67.2c2.9-2.5,5.2-5,7.2-7.8
		c15.1-20.6,15.8-43.1,8.1-66.5c-5.3-16.1-11.5-31.9-16.6-48c-3.2-10.2-4.4-20.7,2.2-30.7c-2.6,22.6,8.4,39.9,20.6,57
		c10.1,14.2,13.6,30.3,11.9,47.5c-0.6,6.1-2,12.1-3.3,19.4c47.9-29,65.8-75.2,78-125.1c4.9,51.8-14.6,93.9-51.2,129.4
		c7.8-3.7,14.8-7.9,21.5-12.4c56.4-38.4,77-92.8,68.6-158.8c-2.2-17.5-9.3-34.5-13.8-51.7c-2.3-8.8-4-17.7-5.9-26.4
		c10.9,16,20.5,32.1,32.1,46.7c18.2,22.9,22.9,48,15.1,75.5c-4.7,16.7-11.2,33-17.3,50.7c23.3-17,43.9-35,56.5-60.6
		C508.5,530.6,505.2,504.6,485.9,481.5z M364.8,435.1c7.1-2.7,14.2-5.3,21.1-7.9c0.2,7.3-8.6,12.9-30.5,20.8
		c5-0.8,10.2-1.3,15.1-2.6c5.3-1.4,10.4-3.6,15.8-5.5c-0.4,10.1-0.4,10.1-32.4,19.5c9.4-1.4,18.7-2.8,28.2-4.2
		c-4.2,12.9-4.2,12.9-23.3,13.2c4.8,1.4,9.6,2.8,14.7,4.3c-2.1,6.2-5.2,9.5-12,7c-9.1-3.4-18.5-5.9-27.3-10
		c-10.7-5-13.2-16.5-7.1-26.7c3.6-6,6.8-12.1,10.4-18.1c1-1.7,2.7-3,5.3-5.7c0.5,4.1,0.8,6.6,1.2,9.5c12.6-3.7,18.2-13.5,23.1-27.4
		c7.1,6.5,12.7,11.6,20,18.3c-8.8,5.5-15.8,9.8-22.7,14.1C364.5,434.3,364.7,434.7,364.8,435.1z"/>
</g>
</svg>
