<?xml version="1.0" encoding="utf-8"?>
<!-- Generator: Adobe Illustrator 22.0.1, SVG Export Plug-In . SVG Version: 6.00 Build 0)  -->
<svg version="1.1" id="Calque_1" xmlns="http://www.w3.org/2000/svg" xmlns:xlink="http://www.w3.org/1999/xlink" x="0px" y="0px"
	 viewBox="0 0 354.9 402" style="enable-background:new 0 0 354.9 402;" xml:space="preserve">
<path d="M253.6,203.9c-8.2-3.9-16.3-8.3-24.8-11.6c-23.1-8.9-39-25.6-51.2-46.4c-16-27.3-25.2-57.1-31.9-87.8
	c-2.1-9.6-3.6-19.3-5-29c-0.3-2.1,0.7-5.5,2.3-6.3c1.4-0.8,4.8,0.3,6.5,1.6c39.9,30.4,76.9,64,107.9,103.6
	c22.3,28.5,41,59.1,49.7,94.8c0.9,3.7,1.7,7.5,2,11.3c0.4,4,2,5.1,6.1,5.1c14.9,0.1,25,15.2,19.5,28.7c-0.4,0.9-0.6,2.1-1.3,2.6
	c-6.4,4.5-4.3,10.7-3.9,16.9c3.2,47-30.8,89.6-76.2,95.6c-49,6.5-92.7-24.1-102.2-71.7c-3.5-17.7-1.8-35.1,5.2-51.9
	c0.7-1.6,1.3-3.3,2.6-6.4c-11.6,0-22.3,0.3-32.9-0.1c-16.7-0.5-33.1-3.5-48.9-9.1c-42.8-15.3-63.7-47.4-60.6-92.8
	c1.7-24.7,8.8-48.2,18.9-70.5c8.1-18,17.7-35.4,26.7-53c1.4-2.8,3.4-4.7,6.7-3.5c3.7,1.4,2.7,4.3,1.9,7.1c-7.3,26-7.6,51.6,4.3,76.5
	c6.5,13.4,16.3,24.3,26.8,34.6c19,18.8,40.4,34.7,62.2,50.2c9.5,6.7,18.5,14.1,27.9,21c1.3,0.9,3.8,1.6,5,1
	C214.6,205.2,233.5,202,253.6,203.9z M201.2,221.7c5.1,4.9,8.9,9.7,16.7,9.9c12.5,0.4,24.8,3.2,35.9,9.3c9.7,5.3,16.6,12.9,18.6,24
	c4.1,22.4-9.8,45.2-31.6,52.2c-15.1,4.9-30.3,3.5-45.3-0.6c-14-3.8-26.6-10.2-38-19.7c0.6,2.6,1.2,5.5,3,6.8
	c7.7,5.4,15.3,11.3,23.8,15.3c18.5,8.8,38.4,12.8,58.5,16.2c8.2,1.4,16.6,2.1,24.5,4.4c8.9,2.6,10.7,10.5,4.2,17.1
	c-4.6,4.7-10.3,8.3-15.8,12.1c-3.5,2.4-7.4,4.2-11.1,6.3c14.2-0.2,26.9-4.5,38.7-11.8c3.2-2,4.3-3.8,3.8-8
	c-2.7-19,1.9-35.2,20.4-44.6c0.2-0.1,0.2-0.6,0.4-1.1c-15.4-4.6-22.9-16.1-26.6-30.8c-4.2-17-3.2-34.1-0.2-51.1
	c0.6-3.2-0.5-4.4-2.9-5.7c-9.8-5.3-20.3-8.5-31.3-9.5C231,211,215.9,214,201.2,221.7z M208.4,259.2c-10.4-1.2-20-2.4-29.8-3.3
	c-13.2-1.3-10.6-3.4-15.9,9.7c-6.7,16.9-4.6,22.8,10.8,32.4c15.1,9.4,31.6,14,49.3,13.9c25.4-0.2,42.3-17.1,41.8-41.1
	c-0.1-7.8-3.3-14.2-9.4-19c-10.1-7.9-22-10.1-34.8-11.8c4.6,6.2,8.7,12,13,17.6c0.8,1,1.9,1.9,2.8,2.8c7.8,7.8,8.3,19.7,1.1,28
	c-7,8.1-19.5,9.2-28,2.6c-8.6-6.8-10.3-18.6-4-27.7C206.3,262.2,207.2,261,208.4,259.2z M160.8,315.6c3.5,14.3,5.9,17.2,18.5,22.6
	c1.7,0.7,3.4,1.6,5.1,2c16.4,3.7,32.7,7.4,49.1,11c3,0.7,6.5,0.8,6,5c-0.5,4.2-3.7,3.7-6.9,3.3c-18-2.4-35.8-5.8-52.9-12.1
	c-0.5-0.2-1.1,0-1.9,0c9.3,12.7,31.2,25.5,45.8,26.9c1.1,0.1,2.5,0.2,3.4-0.3c11.5-6.2,23.1-12.5,34.5-19c2.3-1.3,3.8-3.8,6.9-6.9
	c-5.8-1.2-9.9-2.3-14.1-2.9C221.6,340.5,189.6,334.3,160.8,315.6z M290.1,229.7c-0.7,0.2-1.4,0.4-2,0.6c-0.2,11.1-1.1,22.2-0.5,33.2
	c0.4,7,2,14.2,4.4,20.8c4,10.8,12,17.1,23.9,18.2c4.3,0.4,5.6-0.9,5.6-5c0.4-23.4-7.1-43.7-23.5-60.6
	C295.6,234.3,292.8,232.1,290.1,229.7z M66.2,230.4c11.5-25.4,22.7-50.2,33.8-75.1c0.4-0.9,0.3-2.8-0.4-3.4
	c-4-4.2-8.2-8.1-12.6-12.4c-11.8,27.1-23.5,54-35.4,81.3C56.5,224.1,61.2,227.2,66.2,230.4z M107.4,159.2
	C96,184.3,85,208.9,73.6,234.1c6.2,2.1,12.1,4.2,18,6.2c10.4-23,20.7-45.6,31-68.3C117.5,167.7,112.7,163.7,107.4,159.2z M70.2,117
	c-0.5,0.5-0.8,0.7-0.9,1c-11.4,26.6-22.9,53.1-34.2,79.7c-0.5,1.2-0.7,3.2,0,4.2c3,4.3,6.3,8.4,9.4,12.6c0.8-0.6,1-0.6,1-0.8
	c11.6-26.5,23.2-53,34.7-79.5c0.5-1.1,0.1-3-0.6-4C76.7,125.9,73.5,121.6,70.2,117z M99.8,242.2c7.6,0.9,14.5,1.8,21.3,2.6
	c8.8-18.2,17.4-36,26.2-54c-6.1-4.5-11.9-8.8-18-13.4C119.4,199.1,109.8,220.1,99.8,242.2z M58.5,86.5c-1.2,2.6-2,4.3-2.8,6.1
	c-9.4,22.4-18.4,45-28.4,67.1c-4.7,10.5-0.5,19.3,1.6,29.4c0.9-0.8,1.3-1,1.4-1.3c11.3-26.3,22.6-52.6,33.8-78.9
	c0.5-1.2,0.6-3,0.3-4.3C62.6,98.9,60.7,93.2,58.5,86.5z M216.3,93.8c-6.6,21.7-12.9,42.5-19.1,63.3c-0.2,0.8-0.1,2.1,0.5,2.7
	c4,4.3,8.1,8.4,12.8,13.3c6.5-21.7,12.7-42,18.8-62.4c0.3-1,0.2-2.5-0.3-3.2C225,103,220.9,98.7,216.3,93.8z M235.1,186.1
	c4.9-17.7,9.6-34.6,14.3-51.5c0.3-1.1,0.2-2.8-0.5-3.7c-3.8-4.9-7.8-9.7-12.4-15.3c-6.4,21.3-12.5,41.5-18.7,62.3
	C223.4,180.6,228.9,183.2,235.1,186.1z M129.9,245.4c7.7,0,14.4,0.1,21-0.1c1.2,0,2.8-1.1,3.3-2.2c5.9-11.5,11.6-23.1,17.6-35
	c-6-4.2-11.7-8.2-17.8-12.4C146,212.2,138.3,228.2,129.9,245.4z M199.3,75c-1.5,1.7-1.8,1.9-1.9,2.2c-6,17.2-12,34.5-17.9,51.8
	c-0.3,1-0.3,2.4,0.1,3.2c3.3,5.9,6.7,11.8,10.1,17.8c0.7-0.7,1-0.9,1.1-1.1c6.1-19.8,12.1-39.7,18.1-59.6c0.3-1-0.1-2.6-0.7-3.5
	C205.4,82.2,202.3,78.7,199.3,75z M258.7,197.3c3.3-12.9,6.6-25.4,9.8-37.9c0.1-0.6,0-1.4-0.3-1.9c-3.7-5.4-7.4-10.8-11.8-17.2
	c-4.8,17.2-9.1,33.1-13.6,49.2C248.1,192.1,253.1,194.6,258.7,197.3z M180.7,60.4c-4,11.3-7.1,22.2-11.8,32.4
	c-4.7,10.3,1.5,17.5,4.8,27.2c5.9-17,11.3-32.5,16.6-48.1c0.3-1,0-2.8-0.7-3.5C186.9,65.8,184,63.4,180.7,60.4z M218.2,252.2
	c0.2-0.4,0.5-0.9,0.7-1.3c-7.8-7.6-15.6-15.3-23.5-22.8c-0.7-0.7-3.1-0.9-3.7-0.3c-6.5,5.8-12.8,11.8-19.1,17.7
	c0.3,0.4,0.7,0.9,1,1.3C188.5,248.6,203.3,250.4,218.2,252.2z M57,54.5c-14.3,27.1-26.4,54.9-30.9,85.6c1.1-1.5,1.9-3.1,2.6-4.8
	c8-18.8,15.7-37.8,24-56.5C56.2,71,57.7,63,57,54.5z M222.1,287.1c6.6,0.1,12.1-5.3,12.2-11.9c0.1-6.6-5.2-12.1-11.9-12.2
	c-6.9-0.1-12.5,5.3-12.5,12.1C210,281.7,215.4,287.1,222.1,287.1z M274.5,169.4c-2.6,9.9-5.2,19.8-7.6,29.8
	c-0.2,0.9,0.6,2.6,1.4,3.1c3,1.9,6.3,3.6,9.5,5.3C283.2,194.2,287.6,181.2,274.5,169.4z M295.6,353.6c11.1-10.7,18.5-22.7,22.6-37.2
	C301.9,318.8,291.7,334.4,295.6,353.6z M165.3,48.1c-5,12.6-12,24.9-2.8,38.5c2.8-7.9,5.6-15.9,8.4-23.8c3.2-9,3.2-9-4.7-14.5
	C166.1,48.2,165.9,48.2,165.3,48.1z M178.5,213.4c-5.2,10.4-10.1,20.2-15,30c-0.6-0.7-1.1-1.3-1.7-2c7.9-7.2,15.9-14.5,24.1-21.9
	C184.2,218.2,181.6,216,178.5,213.4z M298.3,220.6c-2.9-8.1-5.3-15.1-7.8-22c-2.2,4.2-3.5,8.2-4.5,12.4c-0.2,0.7,0.8,2.1,1.6,2.6
	C290.7,215.8,294,217.7,298.3,220.6z M326,266.8c4-9.1,0.1-17.3-8.4-18.5C320.4,254.4,323.1,260.3,326,266.8z M153.4,54.3
	c6.1-11.6,5.4-15.1-3.4-17.8C151.1,42.2,152.1,47.8,153.4,54.3z"/>
</svg>
